SplineFontDB: 3.2
FontName: PixelOperator
FullName: Pixel Operator
FamilyName: Pixel Operator
Weight: Regular
Copyright: Released by Jayvee Enaguas (HarvettFox96) <harvettfox96 [at] protonmail [dot] com>, licensed under a Creative Commons Zero (CC0) 1.0 <https://creativecommons.org/licenses/zero/1.0/>. (c) 2009-2018.
Version: 2018.10.04-1
ItalicAngle: 0
UnderlinePosition: -250
UnderlineWidth: 100
Ascent: 1300
Descent: 300
InvalidEm: 0
LayerCount: 2
Layer: 0 0 "Back" 1
Layer: 1 0 "Fore" 0
FSType: 0
OS2Version: 0
OS2_WeightWidthSlopeOnly: 0
OS2_UseTypoMetrics: 1
CreationTime: 1316415715
ModificationTime: 1666306224
PfmFamily: 33
TTFWeight: 400
TTFWidth: 5
LineGap: 72
VLineGap: 0
OS2TypoAscent: 0
OS2TypoAOffset: 1
OS2TypoDescent: 0
OS2TypoDOffset: 1
OS2TypoLinegap: 72
OS2WinAscent: 0
OS2WinAOffset: 1
OS2WinDescent: 0
OS2WinDOffset: 1
HheadAscent: 0
HheadAOffset: 1
HheadDescent: 0
HheadDOffset: 1
OS2FamilyClass: 2048
OS2Vendor: 'HF96'
MarkAttachClasses: 1
DEI: 91125
LangName: 1033 "" "" "" "PixelOperator:FontForge:2018.10.04-1" "" "2018.10.04-1" "" "" "" "Jayvee Enaguas (HarvettFox96)" "" "" "mailto:harvettfox96 [at] protonmail [dot] com" "Creative Commons Zero (CC0) 1.0" "https://creativecommons.org/licenses/zero/1.0/"
Encoding: Custom
UnicodeInterp: none
NameList: AGL For New Fonts
DisplaySize: -48
AntiAlias: 1
FitToEm: 0
WinInfo: 0 39 14
BeginPrivate: 0
EndPrivate
TeXData: 1 0 0 346030 173015 115343 0 1048576 115343 783286 444596 497025 792723 393216 433062 380633 303038 157286 324010 404750 52429 2506097 1059062 262144
BeginChars: 241 241

StartChar: .notdef
Encoding: 0 -1 0
Width: 900
VWidth: 0
HStem: 0 100<300 600> 800 100<300 600>
VStem: 200 100<100 800> 600 100<100 800>
LayerCount: 2
Fore
SplineSet
600 800 m 1
 300 800 l 1
 300 100 l 1
 600 100 l 1
 600 800 l 1
200 900 m 1
 700 900 l 1
 700 0 l 1
 200 0 l 1
 200 900 l 1
EndSplineSet
EndChar

StartChar: exclam
Encoding: 2 33 2
Width: 500
VWidth: 0
HStem: 0 100<200 300> 880 20G<200 300>
VStem: 200 100<0 100 200 900>
LayerCount: 2
Fore
SplineSet
200 900 m 1
 300 900 l 1
 300 200 l 1
 200 200 l 1
 200 900 l 1
200 100 m 1
 300 100 l 1
 300 0 l 1
 200 0 l 1
 200 100 l 1
EndSplineSet
EndChar

StartChar: quotedbl
Encoding: 3 34 3
Width: 700
VWidth: 0
HStem: 600 300<200 300 400 500>
VStem: 200 100<600 900> 400 100<600 900>
LayerCount: 2
Fore
SplineSet
200 900 m 1
 300 900 l 1
 300 600 l 1
 200 600 l 1
 200 900 l 1
400 900 m 1
 500 900 l 1
 500 600 l 1
 400 600 l 1
 400 900 l 1
EndSplineSet
EndChar

StartChar: numbersign
Encoding: 4 35 4
Width: 800
VWidth: 0
HStem: 0 21G<200 300 500 600> 200 100<100 200 300 500 600 700> 600 100<100 200 300 500 600 700> 880 20G<200 300 500 600>
VStem: 200 100<0 200 300 600 700 900> 500 100<0 200 300 600 700 900>
LayerCount: 2
Fore
SplineSet
200 900 m 1
 300 900 l 1
 300 700 l 1
 500 700 l 1
 500 900 l 1
 600 900 l 1
 600 700 l 1
 700 700 l 1
 700 600 l 1
 600 600 l 1
 600 300 l 1
 700 300 l 1
 700 200 l 1
 600 200 l 1
 600 0 l 1
 500 0 l 1
 500 200 l 1
 300 200 l 1
 300 0 l 1
 200 0 l 1
 200 200 l 1
 100 200 l 1
 100 300 l 1
 200 300 l 1
 200 600 l 1
 100 600 l 1
 100 700 l 1
 200 700 l 1
 200 900 l 1
500 600 m 1
 300 600 l 1
 300 300 l 1
 500 300 l 1
 500 600 l 1
EndSplineSet
EndChar

StartChar: dollar
Encoding: 5 36 5
Width: 700
VWidth: 0
HStem: 0 100<200 300 400 500> 100 100<100 200> 400 100<200 300 400 500> 700 100<500 600> 800 100<200 300 400 500>
VStem: 100 100<100 200 500 800> 200 300<0 100 400 500 800 900> 300 100<-100 0 100 400 500 800 900 1000> 500 100<100 400 700 800>
LayerCount: 2
Fore
SplineSet
500 800 m 1x32
 600 800 l 1
 600 700 l 1
 500 700 l 1x3080
 500 800 l 1x32
100 200 m 1x64
 200 200 l 1x64
 200 100 l 1xa4
 100 100 l 1
 100 200 l 1x64
500 400 m 1xa2
 600 400 l 1
 600 100 l 1x6080
 500 100 l 1
 500 400 l 1xa2
100 800 m 1x2c
 200 800 l 1
 200 500 l 1
 100 500 l 1
 100 800 l 1x2c
300 1000 m 1xa9
 400 1000 l 1
 400 900 l 1xa9
 500 900 l 1xaa
 500 800 l 1x32
 400 800 l 1
 400 500 l 1x29
 500 500 l 1
 500 400 l 1x2a
 400 400 l 1
 400 100 l 1xa9
 500 100 l 1
 500 0 l 1xaa
 400 0 l 1
 400 -100 l 1
 300 -100 l 1
 300 0 l 1xa9
 200 0 l 1xaa
 200 100 l 1
 300 100 l 1
 300 400 l 1xad
 200 400 l 1xaa
 200 500 l 1
 300 500 l 1
 300 800 l 1
 200 800 l 1xad
 200 900 l 1xaa
 300 900 l 1
 300 1000 l 1xa9
EndSplineSet
EndChar

StartChar: percent
Encoding: 6 37 6
Width: 900
VWidth: 0
HStem: 0 100<600 700> 100 200<500 600 700 800> 200 100<200 300> 300 100<300 400 600 700> 400 100<400 500> 500 100<200 300 500 600> 600 200<100 200 300 400> 600 100<600 700> 800 100<200 300>
VStem: 100 100<600 800> 200 100<200 300 500 600 800 900> 300 100<300 400 600 800> 400 100<400 500> 500 100<100 300 500 600> 600 100<0 100 300 400 600 700> 700 100<100 300>
LayerCount: 2
Fore
SplineSet
700 300 m 1x4002
 800 300 l 1
 800 100 l 1x4001
 700 100 l 1x8002
 700 300 l 1x4002
600 100 m 1x8004
 700 100 l 1
 700 0 l 1
 600 0 l 1x8002
 600 100 l 1x8004
500 300 m 1x4004
 600 300 l 1x4004
 600 100 l 1x8004
 500 100 l 1
 500 300 l 1x4004
600 400 m 1x1002
 700 400 l 1x1002
 700 300 l 1x4002
 600 300 l 1x4004
 600 400 l 1x1002
200 300 m 1x2020
 300 300 l 1
 300 200 l 1
 200 200 l 1
 200 300 l 1x2020
300 400 m 1x1010
 400 400 l 1
 400 300 l 1x1010
 300 300 l 1x2020
 300 400 l 1x1010
400 500 m 1x0808
 500 500 l 1
 500 400 l 1x0808
 400 400 l 1x1010
 400 500 l 1x0808
500 600 m 1x0404
 600 600 l 1
 600 500 l 1x0404
 500 500 l 1x0808
 500 600 l 1x0404
600 700 m 1x0102
 700 700 l 1
 700 600 l 1x0102
 600 600 l 1x0404
 600 700 l 1x0102
300 800 m 1x0220
 400 800 l 1
 400 600 l 1x0210
 300 600 l 1x0420
 300 800 l 1x0220
200 600 m 1x0440
 300 600 l 1
 300 500 l 1
 200 500 l 1x0420
 200 600 l 1x0440
100 800 m 1x0240
 200 800 l 1x0240
 200 600 l 1x0440
 100 600 l 1
 100 800 l 1x0240
200 900 m 1x00a0
 300 900 l 1x00a0
 300 800 l 1x0220
 200 800 l 1x0240
 200 900 l 1x00a0
EndSplineSet
Validated: 5
EndChar

StartChar: ampersand
Encoding: 7 38 7
Width: 700
VWidth: 0
HStem: 0 100<200 500> 400 100<200 500> 700 100<500 600> 800 100<200 500>
VStem: 100 100<100 400 500 800> 200 300<400 500 800 900> 500 100<100 400 700 800>
LayerCount: 2
Fore
SplineSet
500 400 m 1xc4
 600 400 l 1
 600 0 l 1xc2
 200 0 l 1xc4
 200 100 l 1
 500 100 l 1xca
 500 400 l 1xc4
100 400 m 1xc8
 200 400 l 1
 200 100 l 1
 100 100 l 1
 100 400 l 1xc8
200 500 m 1
 500 500 l 1
 500 400 l 1xc4
 200 400 l 1
 200 500 l 1
100 800 m 1xd8
 200 800 l 1
 200 500 l 1
 100 500 l 1
 100 800 l 1xd8
200 900 m 1xd4
 500 900 l 1xd4
 500 800 l 1xe4
 200 800 l 1xd8
 200 900 l 1xd4
500 800 m 1xe4
 600 800 l 1
 600 700 l 1
 500 700 l 1xe2
 500 800 l 1xe4
EndSplineSet
Validated: 5
EndChar

StartChar: quotesingle
Encoding: 8 39 8
Width: 500
VWidth: 0
HStem: 600 300<200 300>
VStem: 200 100<600 900>
LayerCount: 2
Fore
SplineSet
200 900 m 1
 300 900 l 1
 300 600 l 1
 200 600 l 1
 200 900 l 1
EndSplineSet
EndChar

StartChar: parenleft
Encoding: 9 40 9
Width: 700
VWidth: 0
HStem: 0 100<500 600> 100 100<400 500> 680 20G<300 400> 700 100<400 500> 800 100<500 600>
VStem: 300 100<200 700> 400 100<100 200 700 800> 500 100<0 100 800 900>
LayerCount: 2
Fore
SplineSet
500 100 m 1x82
 600 100 l 1
 600 0 l 1
 500 0 l 1x81
 500 100 l 1x82
400 200 m 1x44
 500 200 l 1x42
 500 100 l 1x82
 400 100 l 1x42
 400 200 l 1x44
300 700 m 1x64
 400 700 l 1
 400 200 l 1
 300 200 l 1
 300 700 l 1x64
400 800 m 1x12
 500 800 l 1
 500 700 l 1x12
 400 700 l 1x24
 400 800 l 1x12
500 900 m 1x09
 600 900 l 1
 600 800 l 1x09
 500 800 l 1x12
 500 900 l 1x09
EndSplineSet
Validated: 5
EndChar

StartChar: parenright
Encoding: 10 41 10
Width: 700
VWidth: 0
HStem: 0 100<100 200> 100 100<200 300> 680 20G<300 400> 700 100<200 300> 800 100<100 200>
VStem: 100 100<0 100 800 900> 200 100<100 200 700 800> 300 100<200 700>
LayerCount: 2
Fore
SplineSet
100 100 m 1x84
 200 100 l 1
 200 0 l 1
 100 0 l 1
 100 100 l 1x84
200 200 m 1x42
 300 200 l 1
 300 100 l 1x42
 200 100 l 1x84
 200 200 l 1x42
300 700 m 1x62
 400 700 l 1
 400 200 l 1x61
 300 200 l 1
 300 700 l 1x62
200 800 m 1x14
 300 800 l 1x12
 300 700 l 1x22
 200 700 l 1x12
 200 800 l 1x14
100 900 m 1x0c
 200 900 l 1x0c
 200 800 l 1x14
 100 800 l 1
 100 900 l 1x0c
EndSplineSet
Validated: 5
EndChar

StartChar: asterisk
Encoding: 11 42 11
Width: 700
VWidth: 0
HStem: 300 100<100 200 500 600> 400 100<200 300 400 500> 500 100<100 200 500 600> 680 20G<300 400>
VStem: 100 100<300 400 500 600> 300 100<200 400 500 700> 500 100<300 400 500 600>
CounterMasks: 1 0e
LayerCount: 2
Fore
SplineSet
500 400 m 1x9e
 600 400 l 1
 600 300 l 1
 500 300 l 1
 500 400 l 1x9e
100 400 m 1
 200 400 l 1
 200 300 l 1
 100 300 l 1
 100 400 l 1
100 600 m 1x3e
 200 600 l 1x3e
 200 500 l 1x5e
 100 500 l 1
 100 600 l 1x3e
500 600 m 1
 600 600 l 1
 600 500 l 1x3e
 500 500 l 1x5e
 500 600 l 1
300 700 m 1
 400 700 l 1
 400 500 l 1
 500 500 l 1x5e
 500 400 l 1x9e
 400 400 l 1
 400 200 l 1
 300 200 l 1
 300 400 l 1x5e
 200 400 l 1x9e
 200 500 l 1
 300 500 l 1x5e
 300 700 l 1
EndSplineSet
EndChar

StartChar: plus
Encoding: 12 43 12
Width: 700
VWidth: 0
HStem: 400 100<100 300 400 600> 680 20G<300 400>
VStem: 300 100<200 400 500 700>
LayerCount: 2
Fore
SplineSet
300 700 m 1
 400 700 l 1
 400 500 l 1
 600 500 l 1
 600 400 l 1
 400 400 l 1
 400 200 l 1
 300 200 l 1
 300 400 l 1
 100 400 l 1
 100 500 l 1
 300 500 l 1
 300 700 l 1
EndSplineSet
EndChar

StartChar: comma
Encoding: 13 44 13
Width: 500
VWidth: 0
HStem: -200 100<100 200> -100 200<200 300>
VStem: 100 100<-200 -100> 200 100<-100 100>
LayerCount: 2
Fore
SplineSet
100 -100 m 1xa0
 200 -100 l 1
 200 -200 l 1
 100 -200 l 1
 100 -100 l 1xa0
200 100 m 1x50
 300 100 l 1
 300 -100 l 1x50
 200 -100 l 1xa0
 200 100 l 1x50
EndSplineSet
Validated: 5
EndChar

StartChar: hyphen
Encoding: 14 45 14
Width: 600
VWidth: 0
HStem: 400 100<100 500>
VStem: 100 400<400 500>
LayerCount: 2
Fore
SplineSet
100 500 m 1
 500 500 l 1
 500 400 l 1
 100 400 l 1
 100 500 l 1
EndSplineSet
EndChar

StartChar: period
Encoding: 15 46 15
Width: 500
VWidth: 0
HStem: 0 100<200 300>
VStem: 200 100<0 100>
LayerCount: 2
Fore
SplineSet
200 100 m 1
 300 100 l 1
 300 0 l 1
 200 0 l 1
 200 100 l 1
EndSplineSet
EndChar

StartChar: slash
Encoding: 16 47 16
Width: 500
VWidth: 0
HStem: 0 21G<100 200> 880 20G<300 400>
VStem: 100 100<0 300> 200 100<300 600> 300 100<600 900>
LayerCount: 2
Fore
SplineSet
100 300 m 1xe0
 200 300 l 1
 200 0 l 1
 100 0 l 1
 100 300 l 1xe0
200 600 m 1xd0
 300 600 l 1
 300 300 l 1xd0
 200 300 l 1xe0
 200 600 l 1xd0
300 900 m 1xc8
 400 900 l 1
 400 600 l 1xc8
 300 600 l 1xd0
 300 900 l 1xc8
EndSplineSet
Validated: 5
EndChar

StartChar: zero
Encoding: 17 48 17
Width: 700
VWidth: 0
HStem: 0 100<200 500> 400 100<300 400> 800 100<200 500>
VStem: 100 200<300 400> 100 100<100 300 400 800> 200 300<0 100 800 900> 300 100<400 500> 400 200<500 600> 500 100<100 500 600 800>
CounterMasks: 1 e0
LayerCount: 2
Fore
SplineSet
200 100 m 1xe8
 500 100 l 1
 500 0 l 1
 200 0 l 1xe4
 200 100 l 1xe8
500 800 m 1
 600 800 l 1
 600 100 l 1xe080
 500 100 l 1xe4
 500 500 l 1
 400 500 l 1xe280
 400 600 l 1xe1
 500 600 l 1xe080
 500 800 l 1
300 500 m 1xe2
 400 500 l 1
 400 400 l 1xe2
 300 400 l 1xf0
 300 500 l 1xe2
100 800 m 1xe8
 200 800 l 1
 200 400 l 1xe8
 300 400 l 1
 300 300 l 1xf0
 200 300 l 1
 200 100 l 1
 100 100 l 1
 100 800 l 1xe8
200 900 m 1xe4
 500 900 l 1
 500 800 l 1xe4
 200 800 l 1xe8
 200 900 l 1xe4
EndSplineSet
Validated: 5
EndChar

StartChar: one
Encoding: 18 49 18
Width: 700
VWidth: 0
HStem: 0 21G<400 500> 600 100<200 300> 880 20G<400 500>
VStem: 200 100<600 700> 300 200<700 800> 400 100<0 700 800 900>
LayerCount: 2
Fore
SplineSet
200 700 m 1xf0
 300 700 l 1
 300 600 l 1
 200 600 l 1
 200 700 l 1xf0
400 900 m 1xe4
 500 900 l 1
 500 0 l 1
 400 0 l 1
 400 700 l 1
 300 700 l 1xf4
 300 800 l 1xe8
 400 800 l 1
 400 900 l 1xe4
EndSplineSet
Validated: 5
EndChar

StartChar: two
Encoding: 19 50 19
Width: 700
VWidth: 0
HStem: 0 100<200 600> 300 100<200 300> 400 100<300 400> 500 100<400 500> 600 200<500 600> 700 100<100 200> 800 100<200 500>
VStem: 100 100<100 300 700 800> 200 100<300 400> 300 100<400 500> 400 100<500 600> 500 100<600 800>
LayerCount: 2
Fore
SplineSet
100 300 m 1xc110
 200 300 l 1
 200 100 l 1
 600 100 l 1
 600 0 l 1
 100 0 l 1
 100 300 l 1xc110
200 300 m 1
 200 400 l 1
 300 400 l 1
 300 300 l 1xc080
 200 300 l 1
300 500 m 1xa040
 400 500 l 1
 400 400 l 1xa040
 300 400 l 1xc080
 300 500 l 1xa040
400 600 m 1x9020
 500 600 l 1
 500 500 l 1x9020
 400 500 l 1xa040
 400 600 l 1x9020
500 800 m 1x8810
 600 800 l 1
 600 600 l 1x8810
 500 600 l 1x9020
 500 800 l 1x8810
200 900 m 1x8280
 500 900 l 1x8290
 500 800 l 1x8890
 200 800 l 1x8510
 200 900 l 1x8280
100 800 m 1x85
 200 800 l 1
 200 700 l 1
 100 700 l 1
 100 800 l 1x85
EndSplineSet
Validated: 5
EndChar

StartChar: three
Encoding: 20 51 20
Width: 700
VWidth: 0
HStem: 0 100<200 500> 100 100<100 200> 400 100<300 500> 700 100<100 200> 800 100<200 500>
VStem: 100 100<100 200 700 800> 200 300<0 100 800 900> 300 200<400 500> 500 100<100 400 500 800>
LayerCount: 2
Fore
SplineSet
100 200 m 1x64
 200 200 l 1x64
 200 100 l 1xa4
 100 100 l 1
 100 200 l 1x64
200 100 m 1xa4
 500 100 l 1
 500 0 l 1
 200 0 l 1xa2
 200 100 l 1xa4
500 400 m 1xa1
 600 400 l 1
 600 100 l 1x6080
 500 100 l 1xa2
 500 400 l 1xa1
300 500 m 1x21
 500 500 l 1
 500 400 l 1
 300 400 l 1
 300 500 l 1x21
500 800 m 1x2a
 600 800 l 1
 600 500 l 1x2880
 500 500 l 1x29
 500 800 l 1x2a
200 900 m 1x2a
 500 900 l 1
 500 800 l 1x2a
 200 800 l 1x34
 200 900 l 1x2a
100 800 m 1x34
 200 800 l 1
 200 700 l 1
 100 700 l 1
 100 800 l 1x34
EndSplineSet
Validated: 5
EndChar

StartChar: four
Encoding: 21 52 21
Width: 700
VWidth: 0
HStem: 0 21G<500 600> 300 200<100 200> 300 100<200 500> 500 100<200 300> 600 100<300 400> 880 20G<500 600>
VStem: 100 100<400 500> 200 100<500 600> 300 100<600 700> 400 200<700 800> 500 100<0 300 400 700 800 900>
LayerCount: 2
Fore
SplineSet
500 900 m 1xac20
 600 900 l 1
 600 0 l 1
 500 0 l 1
 500 300 l 1xac20
 100 300 l 1
 100 500 l 1
 200 500 l 1xc620
 200 400 l 1
 500 400 l 1
 500 700 l 1
 400 700 l 1xaea0
 400 800 l 1xac40
 500 800 l 1
 500 900 l 1xac20
200 600 m 1x95
 300 600 l 1
 300 500 l 1x95
 200 500 l 1xc6
 200 600 l 1x95
300 700 m 1x8c80
 400 700 l 1
 400 600 l 1x8c80
 300 600 l 1x95
 300 700 l 1x8c80
EndSplineSet
Validated: 5
EndChar

StartChar: five
Encoding: 22 53 22
Width: 700
VWidth: 0
HStem: 0 100<200 500> 100 100<100 200> 500 100<200 500> 800 100<200 600>
VStem: 100 100<100 200 600 800> 500 100<100 500>
LayerCount: 2
Fore
SplineSet
100 200 m 1x7c
 200 200 l 1x7c
 200 100 l 1xbc
 100 100 l 1
 100 200 l 1x7c
200 100 m 1xbc
 500 100 l 1
 500 0 l 1
 200 0 l 1
 200 100 l 1xbc
500 500 m 1
 600 500 l 1
 600 100 l 1x7c
 500 100 l 1
 500 500 l 1
100 900 m 1
 600 900 l 1
 600 800 l 1
 200 800 l 1
 200 600 l 1
 500 600 l 1
 500 500 l 1
 100 500 l 1
 100 900 l 1
EndSplineSet
Validated: 5
EndChar

StartChar: six
Encoding: 23 54 23
Width: 700
VWidth: 0
HStem: 0 100<200 500> 400 100<200 500> 700 100<500 600> 800 100<200 500>
VStem: 100 100<100 400 500 800> 200 300<0 100 800 900> 500 100<100 400 700 800>
LayerCount: 2
Fore
SplineSet
500 400 m 1xc2
 600 400 l 1
 600 100 l 1xc2
 500 100 l 1xc4
 500 400 l 1xc2
200 100 m 1xc8
 500 100 l 1
 500 0 l 1
 200 0 l 1xc4
 200 100 l 1xc8
100 800 m 1xda
 200 800 l 1
 200 500 l 1
 500 500 l 1
 500 400 l 1
 200 400 l 1
 200 100 l 1
 100 100 l 1
 100 800 l 1xda
200 900 m 1xd4
 500 900 l 1xd4
 500 800 l 1xe4
 200 800 l 1xd8
 200 900 l 1xd4
500 800 m 1xe4
 600 800 l 1
 600 700 l 1
 500 700 l 1xe2
 500 800 l 1xe4
EndSplineSet
Validated: 5
EndChar

StartChar: seven
Encoding: 24 55 24
Width: 700
VWidth: 0
HStem: 0 21G<100 200> 300 100<200 300> 400 100<300 400> 500 100<400 500> 800 100<100 500>
VStem: 100 100<0 300> 200 100<300 400> 300 100<400 500> 400 100<500 600> 500 100<600 800>
LayerCount: 2
Fore
SplineSet
100 300 m 1xcc
 200 300 l 1
 200 0 l 1
 100 0 l 1
 100 300 l 1xcc
200 400 m 1xca
 300 400 l 1
 300 300 l 1xca
 200 300 l 1xcc
 200 400 l 1xca
300 500 m 1xa9
 400 500 l 1
 400 400 l 1xa9
 300 400 l 1xca
 300 500 l 1xa9
400 600 m 1x9880
 500 600 l 1
 500 500 l 1x9880
 400 500 l 1xa9
 400 600 l 1x9880
100 900 m 1x9c40
 600 900 l 1
 600 600 l 1x9c40
 500 600 l 1x9880
 500 800 l 1
 100 800 l 1
 100 900 l 1x9c40
EndSplineSet
Validated: 5
EndChar

StartChar: eight
Encoding: 25 56 25
Width: 700
VWidth: 0
HStem: 0 100<200 500> 100 300<100 200 500 600> 400 100<200 500> 500 300<100 200 500 600> 800 100<200 500>
VStem: 100 100<100 400 500 800> 200 300<0 100 400 500 800 900> 500 100<100 400 500 800>
LayerCount: 2
Fore
SplineSet
100 800 m 1x14
 200 800 l 1x14
 200 500 l 1x24
 100 500 l 1
 100 800 l 1x14
500 400 m 1x42
 600 400 l 1
 600 100 l 1x41
 500 100 l 1x82
 500 400 l 1x42
200 100 m 1x84
 500 100 l 1
 500 0 l 1
 200 0 l 1x82
 200 100 l 1x84
100 400 m 1x44
 200 400 l 1x44
 200 100 l 1x84
 100 100 l 1
 100 400 l 1x44
200 500 m 1x24
 500 500 l 1x22
 500 400 l 1x42
 200 400 l 1x44
 200 500 l 1x24
500 800 m 1x12
 600 800 l 1
 600 500 l 1x11
 500 500 l 1x22
 500 800 l 1x12
200 900 m 1x0a
 500 900 l 1x0a
 500 800 l 1x12
 200 800 l 1x14
 200 900 l 1x0a
EndSplineSet
Validated: 5
EndChar

StartChar: nine
Encoding: 26 57 26
Width: 700
VWidth: 0
HStem: 0 100<200 500> 100 100<100 200> 400 100<200 500> 800 100<200 500>
VStem: 100 100<100 200 500 800> 200 300<0 100 800 900> 500 100<100 400 500 800>
LayerCount: 2
Fore
SplineSet
100 800 m 1x38
 200 800 l 1
 200 500 l 1
 100 500 l 1
 100 800 l 1x38
200 900 m 1x34
 500 900 l 1
 500 800 l 1x34
 200 800 l 1x38
 200 900 l 1x34
500 800 m 1
 600 800 l 1
 600 100 l 1x72
 500 100 l 1xb4
 500 400 l 1xb2
 200 400 l 1xb4
 200 500 l 1
 500 500 l 1xba
 500 800 l 1
200 100 m 1xb8
 500 100 l 1
 500 0 l 1
 200 0 l 1xb4
 200 100 l 1xb8
100 200 m 1x78
 200 200 l 1x78
 200 100 l 1xb8
 100 100 l 1
 100 200 l 1x78
EndSplineSet
Validated: 5
EndChar

StartChar: less
Encoding: 29 60 29
Width: 500
VWidth: 0
HStem: 200 100<300 400> 300 100<200 300> 400 100<100 200> 500 100<200 300> 600 100<300 400>
VStem: 100 100<400 500> 200 100<300 400 500 600> 300 100<200 300 600 700>
LayerCount: 2
Fore
SplineSet
100 500 m 1x24
 200 500 l 1x24
 200 400 l 1x44
 100 400 l 1
 100 500 l 1x24
200 600 m 1x12
 300 600 l 1
 300 500 l 1x12
 200 500 l 1x24
 200 600 l 1x12
300 700 m 1x09
 400 700 l 1
 400 600 l 1x09
 300 600 l 1x12
 300 700 l 1x09
300 300 m 1x82
 400 300 l 1
 400 200 l 1
 300 200 l 1x81
 300 300 l 1x82
200 400 m 1x44
 300 400 l 1x42
 300 300 l 1x82
 200 300 l 1x42
 200 400 l 1x44
EndSplineSet
Validated: 5
EndChar

StartChar: equal
Encoding: 30 61 30
Width: 600
VWidth: 0
HStem: 300 100<100 500> 500 100<100 500>
VStem: 100 400<300 400 500 600>
LayerCount: 2
Fore
SplineSet
100 600 m 1
 500 600 l 1
 500 500 l 1
 100 500 l 1
 100 600 l 1
100 400 m 1
 500 400 l 1
 500 300 l 1
 100 300 l 1
 100 400 l 1
EndSplineSet
EndChar

StartChar: greater
Encoding: 31 62 31
Width: 500
VWidth: 0
HStem: 200 100<100 200> 300 100<200 300> 400 100<300 400> 500 100<200 300> 600 100<100 200>
VStem: 100 100<200 300 600 700> 200 100<300 400 500 600> 300 100<400 500>
LayerCount: 2
Fore
SplineSet
100 300 m 1x84
 200 300 l 1
 200 200 l 1
 100 200 l 1
 100 300 l 1x84
200 400 m 1x42
 300 400 l 1
 300 300 l 1x42
 200 300 l 1x84
 200 400 l 1x42
300 500 m 1x22
 400 500 l 1
 400 400 l 1x21
 300 400 l 1x42
 300 500 l 1x22
200 600 m 1x14
 300 600 l 1x12
 300 500 l 1x22
 200 500 l 1x12
 200 600 l 1x14
100 700 m 1x0c
 200 700 l 1x0c
 200 600 l 1x14
 100 600 l 1
 100 700 l 1x0c
EndSplineSet
Validated: 5
EndChar

StartChar: question
Encoding: 32 63 32
Width: 700
VWidth: 0
HStem: 0 100<300 400> 500 100<400 500> 600 200<500 600> 700 100<100 200> 800 100<200 500>
VStem: 100 100<700 800> 300 100<0 100 200 500> 400 100<500 600> 500 100<600 800>
LayerCount: 2
Fore
SplineSet
300 100 m 1x86
 400 100 l 1
 400 0 l 1
 300 0 l 1
 300 100 l 1x86
300 500 m 1xc6
 400 500 l 1
 400 200 l 1
 300 200 l 1
 300 500 l 1xc6
400 600 m 1xc5
 500 600 l 1
 500 500 l 1xc5
 400 500 l 1xc6
 400 600 l 1xc5
500 800 m 1xa480
 600 800 l 1
 600 600 l 1xa480
 500 600 l 1xc5
 500 800 l 1xa480
200 900 m 1x8c80
 500 900 l 1x8c80
 500 800 l 1xa480
 200 800 l 1x9480
 200 900 l 1x8c80
100 800 m 1x94
 200 800 l 1
 200 700 l 1
 100 700 l 1
 100 800 l 1x94
EndSplineSet
Validated: 5
EndChar

StartChar: at
Encoding: 33 64 33
Width: 900
VWidth: 0
HStem: 0 100<200 700> 200 100<400 500 600 700> 600 100<400 500> 800 100<200 700>
VStem: 100 100<100 800> 300 100<300 600> 400 200<600 700> 500 100<300 600> 700 100<300 800>
LayerCount: 2
Fore
SplineSet
300 600 m 1xfc80
 400 600 l 1
 400 300 l 1
 300 300 l 1
 300 600 l 1xfc80
400 700 m 1xfa80
 600 700 l 1xfa80
 600 300 l 1xf980
 700 300 l 1
 700 200 l 1
 400 200 l 1xfa80
 400 300 l 1
 500 300 l 1
 500 600 l 1
 400 600 l 1xfd80
 400 700 l 1xfa80
700 800 m 1
 800 800 l 1
 800 300 l 1
 700 300 l 1
 700 800 l 1
200 100 m 1
 700 100 l 1
 700 0 l 1
 200 0 l 1
 200 100 l 1
100 800 m 1
 200 800 l 1
 200 100 l 1
 100 100 l 1
 100 800 l 1
200 900 m 1
 700 900 l 1
 700 800 l 1
 200 800 l 1
 200 900 l 1
EndSplineSet
Validated: 5
EndChar

StartChar: A
Encoding: 34 65 34
Width: 700
VWidth: 0
HStem: 0 21G<100 200 500 600> 300 100<200 500> 800 100<200 500>
VStem: 100 100<0 300 400 800> 500 100<0 300 400 800>
LayerCount: 2
Fore
SplineSet
100 800 m 1
 200 800 l 1
 200 400 l 1
 500 400 l 1
 500 800 l 1
 600 800 l 1
 600 0 l 1
 500 0 l 1
 500 300 l 1
 200 300 l 1
 200 0 l 1
 100 0 l 1
 100 800 l 1
200 900 m 1
 500 900 l 1
 500 800 l 1
 200 800 l 1
 200 900 l 1
EndSplineSet
Validated: 5
EndChar

StartChar: B
Encoding: 35 66 35
Width: 700
VWidth: 0
HStem: 0 100<200 500> 400 100<200 500> 800 100<200 500>
VStem: 100 400<0 100 400 500 800 900> 100 100<100 400 500 800> 500 100<100 400 500 800>
CounterMasks: 1 e0
LayerCount: 2
Fore
SplineSet
500 800 m 1xf0
 600 800 l 1
 600 500 l 1xe4
 500 500 l 1
 500 800 l 1xf0
500 400 m 1xf0
 600 400 l 1
 600 100 l 1xe4
 500 100 l 1
 500 400 l 1xf0
100 900 m 1xf0
 500 900 l 1
 500 800 l 1xf0
 200 800 l 1
 200 500 l 1xe8
 500 500 l 1
 500 400 l 1xf0
 200 400 l 1
 200 100 l 1xe8
 500 100 l 1
 500 0 l 1
 100 0 l 1
 100 900 l 1xf0
EndSplineSet
Validated: 5
EndChar

StartChar: C
Encoding: 36 67 36
Width: 700
VWidth: 0
HStem: 0 100<200 500> 100 100<500 600> 700 100<500 600> 800 100<200 500>
VStem: 100 100<100 800> 200 300<0 100 800 900> 500 100<100 200 700 800>
LayerCount: 2
Fore
SplineSet
500 200 m 1x42
 600 200 l 1
 600 100 l 1x42
 500 100 l 1x84
 500 200 l 1x42
200 100 m 1x88
 500 100 l 1
 500 0 l 1
 200 0 l 1x84
 200 100 l 1x88
100 800 m 1x58
 200 800 l 1
 200 100 l 1x98
 100 100 l 1
 100 800 l 1x58
200 900 m 1x14
 500 900 l 1x14
 500 800 l 1x24
 200 800 l 1x18
 200 900 l 1x14
500 800 m 1x24
 600 800 l 1
 600 700 l 1
 500 700 l 1x22
 500 800 l 1x24
EndSplineSet
Validated: 5
EndChar

StartChar: D
Encoding: 37 68 37
Width: 700
VWidth: 0
HStem: 0 100<200 500> 800 100<200 500>
VStem: 100 100<100 800> 500 100<100 800>
LayerCount: 2
Fore
SplineSet
500 800 m 1
 600 800 l 1
 600 100 l 1
 500 100 l 1
 500 800 l 1
100 900 m 1
 500 900 l 1
 500 800 l 1
 200 800 l 1
 200 100 l 1
 500 100 l 1
 500 0 l 1
 100 0 l 1
 100 900 l 1
EndSplineSet
Validated: 5
EndChar

StartChar: E
Encoding: 38 69 38
Width: 700
VWidth: 0
HStem: 0 100<200 600> 400 100<200 400> 800 100<200 600>
VStem: 100 100<100 400 500 800>
CounterMasks: 1 e0
LayerCount: 2
Fore
SplineSet
100 900 m 1
 600 900 l 1
 600 800 l 1
 200 800 l 1
 200 500 l 1
 400 500 l 1
 400 400 l 1
 200 400 l 1
 200 100 l 1
 600 100 l 1
 600 0 l 1
 100 0 l 1
 100 900 l 1
EndSplineSet
EndChar

StartChar: F
Encoding: 39 70 39
Width: 700
VWidth: 0
HStem: 0 21G<100 200> 400 100<200 400> 800 100<200 600>
VStem: 100 100<0 400 500 800>
LayerCount: 2
Fore
SplineSet
100 900 m 1
 600 900 l 1
 600 800 l 1
 200 800 l 1
 200 500 l 1
 400 500 l 1
 400 400 l 1
 200 400 l 1
 200 0 l 1
 100 0 l 1
 100 900 l 1
EndSplineSet
EndChar

StartChar: G
Encoding: 40 71 40
Width: 700
VWidth: 0
HStem: 0 100<200 500> 400 100<400 500> 700 100<500 600> 800 100<200 500>
VStem: 100 100<100 800> 400 200<400 500> 500 100<100 400 700 800>
LayerCount: 2
Fore
SplineSet
400 500 m 1xcc
 600 500 l 1xcc
 600 0 l 1
 200 0 l 1
 200 100 l 1
 500 100 l 1
 500 400 l 1xca
 400 400 l 1
 400 500 l 1xcc
100 800 m 1xd8
 200 800 l 1
 200 100 l 1
 100 100 l 1
 100 800 l 1xd8
200 900 m 1
 500 900 l 1xda
 500 800 l 1xea
 200 800 l 1
 200 900 l 1
500 800 m 1xea
 600 800 l 1
 600 700 l 1
 500 700 l 1
 500 800 l 1xea
EndSplineSet
Validated: 5
EndChar

StartChar: H
Encoding: 41 72 41
Width: 700
VWidth: 0
HStem: 0 21G<100 200 500 600> 400 100<200 500> 880 20G<100 200 500 600>
VStem: 100 100<0 400 500 900> 500 100<0 400 500 900>
LayerCount: 2
Fore
SplineSet
100 900 m 1
 200 900 l 1
 200 500 l 1
 500 500 l 1
 500 900 l 1
 600 900 l 1
 600 0 l 1
 500 0 l 1
 500 400 l 1
 200 400 l 1
 200 0 l 1
 100 0 l 1
 100 900 l 1
EndSplineSet
EndChar

StartChar: I
Encoding: 42 73 42
Width: 500
VWidth: 0
HStem: 0 21G<200 300> 880 20G<200 300>
VStem: 200 100<0 900>
LayerCount: 2
Fore
SplineSet
200 900 m 1
 300 900 l 1
 300 0 l 1
 200 0 l 1
 200 900 l 1
EndSplineSet
EndChar

StartChar: J
Encoding: 43 74 43
Width: 700
VWidth: 0
HStem: 0 100<200 500> 100 100<100 200> 880 20G<500 600>
VStem: 100 100<100 200> 500 100<100 900>
LayerCount: 2
Fore
SplineSet
500 900 m 1xb8
 600 900 l 1
 600 100 l 1x78
 500 100 l 1
 500 900 l 1xb8
200 100 m 1xb8
 500 100 l 1
 500 0 l 1
 200 0 l 1
 200 100 l 1xb8
100 200 m 1x78
 200 200 l 1x78
 200 100 l 1xb8
 100 100 l 1
 100 200 l 1x78
EndSplineSet
Validated: 5
EndChar

StartChar: K
Encoding: 44 75 44
Width: 700
VWidth: 0
HStem: 0 200<500 600> 200 100<400 500> 300 100<300 400> 500 100<300 400> 600 100<400 500> 700 200<500 600>
VStem: 100 200<400 500> 100 100<0 400 500 900> 300 100<300 400 500 600> 400 100<200 300 600 700> 500 100<0 200 700 900>
LayerCount: 2
Fore
SplineSet
500 200 m 1x8040
 600 200 l 1
 600 0 l 1
 500 0 l 1x8020
 500 200 l 1x8040
400 300 m 1x4080
 500 300 l 1x4040
 500 200 l 1x8040
 400 200 l 1x4040
 400 300 l 1x4080
300 400 m 1x22
 400 400 l 1x2080
 400 300 l 1x4080
 300 300 l 1x2080
 300 400 l 1x22
100 900 m 1xb5
 200 900 l 1
 200 500 l 1xb5
 300 500 l 1
 300 400 l 1xb6
 200 400 l 1
 200 0 l 1
 100 0 l 1
 100 900 l 1xb5
300 600 m 1x1080
 400 600 l 1
 400 500 l 1x1080
 300 500 l 1x12
 300 600 l 1x1080
400 700 m 1x0840
 500 700 l 1
 500 600 l 1x0840
 400 600 l 1x1080
 400 700 l 1x0840
500 900 m 1x0420
 600 900 l 1
 600 700 l 1x0420
 500 700 l 1x0840
 500 900 l 1x0420
EndSplineSet
Validated: 5
EndChar

StartChar: L
Encoding: 45 76 45
Width: 700
VWidth: 0
HStem: 0 100<200 600> 880 20G<100 200>
VStem: 100 100<100 900>
LayerCount: 2
Fore
SplineSet
100 900 m 1
 200 900 l 1
 200 100 l 1
 600 100 l 1
 600 0 l 1
 100 0 l 1
 100 900 l 1
EndSplineSet
EndChar

StartChar: M
Encoding: 46 77 46
Width: 900
VWidth: 0
HStem: 0 21G<100 200 700 800> 400 100<400 500> 500 100<300 400 500 600> 600 100<200 300 600 700> 880 20G<100 200 700 800>
VStem: 100 200<600 700> 100 100<0 600 700 900> 300 100<500 600> 400 100<400 500> 500 100<500 600> 600 200<600 700> 700 100<0 600 700 900>
LayerCount: 2
Fore
SplineSet
700 900 m 1x9810
 800 900 l 1
 800 0 l 1
 700 0 l 1
 700 600 l 1x9810
 600 600 l 1xa850
 600 700 l 1x9820
 700 700 l 1
 700 900 l 1x9810
500 600 m 1xa840
 600 600 l 1
 600 500 l 1xa840
 500 500 l 1xc880
 500 600 l 1xa840
400 500 m 1xc9
 500 500 l 1
 500 400 l 1
 400 400 l 1xc880
 400 500 l 1xc9
300 600 m 1xac
 400 600 l 1xa9
 400 500 l 1xc9
 300 500 l 1xa9
 300 600 l 1xac
100 900 m 1x9a
 200 900 l 1
 200 700 l 1x9a
 300 700 l 1x9c
 300 600 l 1xac
 200 600 l 1
 200 0 l 1
 100 0 l 1
 100 900 l 1x9a
EndSplineSet
Validated: 5
EndChar

StartChar: N
Encoding: 47 78 47
Width: 700
VWidth: 0
HStem: 0 21G<100 200 500 600> 400 100<300 400> 880 20G<100 200 500 600>
VStem: 100 200<500 600> 100 100<0 500 600 900> 300 100<400 500> 400 200<300 400> 500 100<0 300 400 900>
LayerCount: 2
Fore
SplineSet
500 900 m 1xe5
 600 900 l 1
 600 0 l 1
 500 0 l 1
 500 300 l 1xe5
 400 300 l 1xe2
 400 400 l 1
 500 400 l 1
 500 900 l 1xe5
300 500 m 1xf0
 400 500 l 1
 400 400 l 1
 300 400 l 1xe4
 300 500 l 1xf0
100 900 m 1xe8
 200 900 l 1
 200 600 l 1xe8
 300 600 l 1
 300 500 l 1xf0
 200 500 l 1
 200 0 l 1
 100 0 l 1
 100 900 l 1xe8
EndSplineSet
Validated: 5
EndChar

StartChar: O
Encoding: 48 79 48
Width: 700
VWidth: 0
HStem: 0 100<200 500> 800 100<200 500>
VStem: 100 100<100 800> 200 300<0 100 800 900> 500 100<100 800>
LayerCount: 2
Fore
SplineSet
500 800 m 1xd0
 600 800 l 1
 600 100 l 1xc8
 500 100 l 1
 500 800 l 1xd0
200 100 m 1xe0
 500 100 l 1
 500 0 l 1
 200 0 l 1xd0
 200 100 l 1xe0
100 800 m 1xe0
 200 800 l 1
 200 100 l 1
 100 100 l 1
 100 800 l 1xe0
200 900 m 1xd0
 500 900 l 1
 500 800 l 1xd0
 200 800 l 1xe0
 200 900 l 1xd0
EndSplineSet
Validated: 5
EndChar

StartChar: P
Encoding: 49 80 49
Width: 700
VWidth: 0
HStem: 0 21G<100 200> 400 100<200 500> 800 100<200 500>
VStem: 100 100<0 400 500 800> 500 100<500 800>
LayerCount: 2
Fore
SplineSet
500 800 m 1
 600 800 l 1
 600 500 l 1
 500 500 l 1
 500 800 l 1
100 900 m 1
 500 900 l 1
 500 800 l 1
 200 800 l 1
 200 500 l 1
 500 500 l 1
 500 400 l 1
 200 400 l 1
 200 0 l 1
 100 0 l 1
 100 900 l 1
EndSplineSet
Validated: 5
EndChar

StartChar: Q
Encoding: 50 81 50
Width: 700
VWidth: 0
HStem: 0 100<200 400 500 600> 100 100<400 500> 200 100<300 400> 800 100<200 500>
VStem: 100 100<100 800> 200 200<0 100> 300 100<200 300> 400 100<100 200> 500 100<0 100 200 800>
LayerCount: 2
Fore
SplineSet
500 100 m 1x91
 600 100 l 1
 600 0 l 1
 500 0 l 1x9080
 500 100 l 1x91
400 200 m 1x52
 500 200 l 1x51
 500 100 l 1x91
 400 100 l 1x94
 400 200 l 1x52
300 300 m 1x32
 400 300 l 1x32
 400 200 l 1x52
 300 200 l 1
 300 300 l 1x32
200 100 m 1x98
 400 100 l 1
 400 0 l 1
 200 0 l 1x94
 200 100 l 1x98
100 800 m 1x58
 200 800 l 1
 200 100 l 1x98
 100 100 l 1
 100 800 l 1x58
200 900 m 1x14
 500 900 l 1
 500 800 l 1
 200 800 l 1x1880
 200 900 l 1x14
500 800 m 1
 600 800 l 1
 600 200 l 1x3080
 500 200 l 1x51
 500 800 l 1
EndSplineSet
Validated: 5
EndChar

StartChar: R
Encoding: 51 82 51
Width: 700
VWidth: 0
HStem: 0 200<500 600> 200 100<400 500> 300 200<300 400> 400 100<200 300 400 500> 800 100<200 500>
VStem: 100 100<0 400 500 800> 400 100<200 300> 500 100<0 200 500 800>
LayerCount: 2
Fore
SplineSet
100 900 m 1x9e
 500 900 l 1
 500 800 l 1
 200 800 l 1
 200 500 l 1
 500 500 l 1
 500 400 l 1x9d
 400 400 l 1
 400 300 l 1x5e
 300 300 l 1x2e
 300 400 l 1
 200 400 l 1
 200 0 l 1
 100 0 l 1
 100 900 l 1x9e
500 800 m 1
 600 800 l 1
 600 500 l 1
 500 500 l 1
 500 800 l 1
400 300 m 1x4e
 500 300 l 1x4e
 500 200 l 1x8e
 400 200 l 1
 400 300 l 1x4e
500 200 m 1x8e
 600 200 l 1
 600 0 l 1
 500 0 l 1x8d
 500 200 l 1x8e
EndSplineSet
Validated: 5
EndChar

StartChar: S
Encoding: 52 83 52
Width: 700
VWidth: 0
HStem: 0 100<200 500> 100 100<100 200> 400 100<200 500> 700 100<500 600> 800 100<200 500>
VStem: 100 100<100 200 500 800> 200 300<0 100 400 500 800 900> 500 100<100 400 700 800>
LayerCount: 2
Fore
SplineSet
100 800 m 1x2c
 200 800 l 1
 200 500 l 1
 100 500 l 1
 100 800 l 1x2c
500 400 m 1xa2
 600 400 l 1
 600 100 l 1x61
 500 100 l 1
 500 400 l 1xa2
200 100 m 1xa4
 500 100 l 1
 500 0 l 1
 200 0 l 1xa2
 200 100 l 1xa4
100 200 m 1x64
 200 200 l 1x64
 200 100 l 1xa4
 100 100 l 1
 100 200 l 1x64
200 500 m 1
 500 500 l 1
 500 400 l 1
 200 400 l 1x22
 200 500 l 1
500 800 m 1x32
 600 800 l 1
 600 700 l 1
 500 700 l 1x31
 500 800 l 1x32
200 900 m 1x2a
 500 900 l 1x2a
 500 800 l 1x32
 200 800 l 1x2c
 200 900 l 1x2a
EndSplineSet
Validated: 5
EndChar

StartChar: T
Encoding: 53 84 53
Width: 700
VWidth: 0
HStem: 0 21G<300 400> 800 100<100 300 400 600>
VStem: 300 100<0 800>
LayerCount: 2
Fore
SplineSet
100 900 m 1
 600 900 l 1
 600 800 l 1
 400 800 l 1
 400 0 l 1
 300 0 l 1
 300 800 l 1
 100 800 l 1
 100 900 l 1
EndSplineSet
EndChar

StartChar: U
Encoding: 54 85 54
Width: 700
VWidth: 0
HStem: 0 100<200 500> 880 20G<100 200 500 600>
VStem: 100 100<100 900> 500 100<100 900>
LayerCount: 2
Fore
SplineSet
500 900 m 1
 600 900 l 1
 600 100 l 1
 500 100 l 1
 500 900 l 1
200 100 m 1
 500 100 l 1
 500 0 l 1
 200 0 l 1
 200 100 l 1
100 900 m 1
 200 900 l 1
 200 100 l 1
 100 100 l 1
 100 900 l 1
EndSplineSet
Validated: 5
EndChar

StartChar: V
Encoding: 55 86 55
Width: 700
VWidth: 0
HStem: 0 100<300 400> 100 100<200 300 400 500> 880 20G<100 200 500 600>
VStem: 100 100<200 900> 200 100<100 200> 300 100<0 100> 400 100<100 200> 500 100<200 900>
LayerCount: 2
Fore
SplineSet
500 900 m 1x61
 600 900 l 1
 600 200 l 1x61
 500 200 l 1x62
 500 900 l 1x61
400 200 m 1x62
 500 200 l 1
 500 100 l 1x62
 400 100 l 1xa4
 400 200 l 1x62
300 100 m 1xa8
 400 100 l 1
 400 0 l 1
 300 0 l 1xa4
 300 100 l 1xa8
200 200 m 1x70
 300 200 l 1x68
 300 100 l 1xa8
 200 100 l 1x68
 200 200 l 1x70
100 900 m 1x70
 200 900 l 1
 200 200 l 1
 100 200 l 1
 100 900 l 1x70
EndSplineSet
Validated: 5
EndChar

StartChar: W
Encoding: 56 87 56
Width: 900
VWidth: 0
HStem: 0 100<200 400 500 700> 680 20G<400 500> 880 20G<100 200 700 800>
VStem: 100 100<100 900> 200 200<0 100> 400 100<100 700> 500 200<0 100> 700 100<100 900>
LayerCount: 2
Fore
SplineSet
700 900 m 1xe1
 800 900 l 1
 800 100 l 1xe1
 700 100 l 1xe2
 700 900 l 1xe1
500 100 m 1xe4
 700 100 l 1
 700 0 l 1
 500 0 l 1xe2
 500 100 l 1xe4
400 700 m 1xe4
 500 700 l 1
 500 100 l 1xe4
 400 100 l 1xe8
 400 700 l 1xe4
200 100 m 1xf0
 400 100 l 1
 400 0 l 1
 200 0 l 1xe8
 200 100 l 1xf0
100 900 m 1xf0
 200 900 l 1
 200 100 l 1
 100 100 l 1
 100 900 l 1xf0
EndSplineSet
Validated: 5
EndChar

StartChar: X
Encoding: 57 88 57
Width: 700
VWidth: 0
HStem: 0 300<100 200 500 600> 300 100<200 300 400 500> 400 100<300 400> 500 100<200 300 400 500> 600 300<100 200 500 600>
VStem: 100 100<0 300 600 900> 200 100<300 400 500 600> 300 100<400 500> 400 100<300 400 500 600> 500 100<0 300 600 900>
LayerCount: 2
Fore
SplineSet
100 300 m 1x84
 200 300 l 1
 200 0 l 1
 100 0 l 1
 100 300 l 1x84
200 400 m 1x42
 300 400 l 1
 300 300 l 1x42
 200 300 l 1x84
 200 400 l 1x42
300 500 m 1x22
 400 500 l 1x21
 400 400 l 1x41
 300 400 l 1x42
 300 500 l 1x22
400 600 m 1x1080
 500 600 l 1
 500 500 l 1x1080
 400 500 l 1x21
 400 600 l 1x1080
500 900 m 1x0840
 600 900 l 1
 600 600 l 1x0840
 500 600 l 1x1080
 500 900 l 1x0840
500 300 m 1x8080
 600 300 l 1
 600 0 l 1
 500 0 l 1x8040
 500 300 l 1x8080
400 400 m 1x41
 500 400 l 1x4080
 500 300 l 1x8080
 400 300 l 1x4080
 400 400 l 1x41
200 600 m 1x14
 300 600 l 1x12
 300 500 l 1x22
 200 500 l 1x12
 200 600 l 1x14
100 900 m 1x0c
 200 900 l 1x0c
 200 600 l 1x14
 100 600 l 1
 100 900 l 1x0c
EndSplineSet
Validated: 5
EndChar

StartChar: Y
Encoding: 58 89 58
Width: 700
VWidth: 0
HStem: 0 21G<300 400> 500 100<200 300 400 500> 600 300<100 200 500 600>
VStem: 100 100<600 900> 200 100<500 600> 300 100<0 500> 400 100<500 600> 500 100<600 900>
LayerCount: 2
Fore
SplineSet
500 900 m 1xa1
 600 900 l 1
 600 600 l 1xa1
 500 600 l 1xc2
 500 900 l 1xa1
400 600 m 1xc2
 500 600 l 1
 500 500 l 1xc2
 400 500 l 1xc4
 400 600 l 1xc2
300 500 m 1xc8
 400 500 l 1
 400 0 l 1
 300 0 l 1xc4
 300 500 l 1xc8
200 600 m 1xd0
 300 600 l 1
 300 500 l 1
 200 500 l 1xc8
 200 600 l 1xd0
100 900 m 1xb0
 200 900 l 1xb0
 200 600 l 1xd0
 100 600 l 1
 100 900 l 1xb0
EndSplineSet
Validated: 5
EndChar

StartChar: Z
Encoding: 59 90 59
Width: 700
VWidth: 0
HStem: 0 100<200 600> 300 100<200 300> 400 100<300 400> 500 100<400 500> 800 100<100 500>
VStem: 100 100<100 300> 200 100<300 400> 300 100<400 500> 400 100<500 600> 500 100<600 800>
LayerCount: 2
Fore
SplineSet
100 300 m 1xcc40
 200 300 l 1
 200 100 l 1
 600 100 l 1
 600 0 l 1
 100 0 l 1
 100 300 l 1xcc40
200 300 m 1
 200 400 l 1
 300 400 l 1
 300 300 l 1xca
 200 300 l 1
300 400 m 1
 300 500 l 1
 400 500 l 1
 400 400 l 1xa9
 300 400 l 1
400 500 m 1
 400 600 l 1
 500 600 l 1
 500 500 l 1x9880
 400 500 l 1
100 900 m 1x9c40
 600 900 l 1
 600 600 l 1x9c40
 500 600 l 1x9880
 500 800 l 1
 100 800 l 1
 100 900 l 1x9c40
EndSplineSet
Validated: 5
EndChar

StartChar: bracketleft
Encoding: 60 91 60
Width: 700
VWidth: 0
HStem: 0 100<400 600> 800 100<400 600>
VStem: 300 300<0 100 800 900> 300 100<100 800>
LayerCount: 2
Fore
SplineSet
300 900 m 1xe0
 600 900 l 1
 600 800 l 1xe0
 400 800 l 1
 400 100 l 1xd0
 600 100 l 1
 600 0 l 1
 300 0 l 1
 300 900 l 1xe0
EndSplineSet
EndChar

StartChar: backslash
Encoding: 61 92 61
Width: 500
VWidth: 0
HStem: 0 21G<300 400> 880 20G<100 200>
VStem: 100 100<600 900> 200 100<300 600> 300 100<0 300>
LayerCount: 2
Fore
SplineSet
200 600 m 1xe0
 300 600 l 1
 300 300 l 1
 200 300 l 1xd0
 200 600 l 1xe0
300 300 m 1
 400 300 l 1
 400 0 l 1
 300 0 l 1xc8
 300 300 l 1
100 900 m 1xe0
 200 900 l 1
 200 600 l 1
 100 600 l 1
 100 900 l 1xe0
EndSplineSet
Validated: 5
EndChar

StartChar: bracketright
Encoding: 62 93 62
Width: 700
VWidth: 0
HStem: 0 100<100 300> 800 100<100 300>
VStem: 100 300<0 100 800 900> 300 100<100 800>
LayerCount: 2
Fore
SplineSet
100 900 m 1xe0
 400 900 l 1
 400 0 l 1
 100 0 l 1
 100 100 l 1xe0
 300 100 l 1
 300 800 l 1xd0
 100 800 l 1
 100 900 l 1xe0
EndSplineSet
EndChar

StartChar: asciicircum
Encoding: 63 94 63
Width: 700
VWidth: 0
HStem: 600 100<100 200 500 600> 700 100<200 300 400 500> 800 100<300 400>
VStem: 100 100<600 700> 200 100<700 800> 300 100<800 900> 400 100<700 800> 500 100<600 700>
LayerCount: 2
Fore
SplineSet
100 700 m 1x90
 200 700 l 1
 200 600 l 1
 100 600 l 1
 100 700 l 1x90
200 800 m 1x48
 300 800 l 1
 300 700 l 1x48
 200 700 l 1x90
 200 800 l 1x48
300 900 m 1x24
 400 900 l 1x24
 400 800 l 1x44
 300 800 l 1x48
 300 900 l 1x24
500 700 m 1x82
 600 700 l 1
 600 600 l 1
 500 600 l 1x81
 500 700 l 1x82
400 800 m 1x44
 500 800 l 1x42
 500 700 l 1x82
 400 700 l 1x42
 400 800 l 1x44
EndSplineSet
Validated: 5
EndChar

StartChar: underscore
Encoding: 64 95 64
Width: 500
VWidth: 0
HStem: -200 100<0 500>
VStem: 0 500<-200 -100>
LayerCount: 2
Fore
SplineSet
0 -100 m 1
 500 -100 l 1
 500 -200 l 1
 0 -200 l 1
 0 -100 l 1
EndSplineSet
EndChar

StartChar: grave
Encoding: 65 96 65
Width: 500
VWidth: 0
HStem: 700 100<200 300> 800 100<100 200>
VStem: 100 100<800 900> 200 100<700 800>
LayerCount: 2
Fore
SplineSet
100 900 m 1x60
 200 900 l 1x60
 200 800 l 1xa0
 100 800 l 1
 100 900 l 1x60
200 800 m 1xa0
 300 800 l 1
 300 700 l 1
 200 700 l 1x90
 200 800 l 1xa0
EndSplineSet
Validated: 5
EndChar

StartChar: a
Encoding: 66 97 66
Width: 700
VWidth: 0
HStem: 0 100<200 500> 100 200<100 200> 300 100<200 500> 500 100<100 200> 600 100<200 500>
VStem: 100 100<100 300 500 600> 500 100<100 300 400 600>
LayerCount: 2
Fore
SplineSet
100 600 m 1x16
 200 600 l 1
 200 500 l 1
 100 500 l 1
 100 600 l 1x16
100 300 m 1x46
 200 300 l 1x46
 200 100 l 1x86
 100 100 l 1
 100 300 l 1x46
500 600 m 1x2e
 600 600 l 1
 600 0 l 1
 200 0 l 1
 200 100 l 1
 500 100 l 1
 500 300 l 1xae
 200 300 l 1x46
 200 400 l 1
 500 400 l 1
 500 600 l 1x2e
200 700 m 1
 500 700 l 1
 500 600 l 1x0e
 200 600 l 1x16
 200 700 l 1
EndSplineSet
Validated: 5
EndChar

StartChar: b
Encoding: 67 98 67
Width: 700
VWidth: 0
HStem: 0 100<200 500> 600 100<200 500> 880 20G<100 200>
VStem: 100 100<100 600 700 900> 500 100<100 600>
LayerCount: 2
Fore
SplineSet
500 600 m 1
 600 600 l 1
 600 100 l 1
 500 100 l 1
 500 600 l 1
100 900 m 1
 200 900 l 1
 200 700 l 1
 500 700 l 1
 500 600 l 1
 200 600 l 1
 200 100 l 1
 500 100 l 1
 500 0 l 1
 100 0 l 1
 100 900 l 1
EndSplineSet
Validated: 5
EndChar

StartChar: c
Encoding: 68 99 68
Width: 700
VWidth: 0
HStem: 0 100<200 500> 100 100<500 600> 500 100<500 600> 600 100<200 500>
VStem: 100 100<100 600> 200 300<0 100 600 700> 500 100<100 200 500 600>
LayerCount: 2
Fore
SplineSet
500 200 m 1x42
 600 200 l 1
 600 100 l 1x42
 500 100 l 1x84
 500 200 l 1x42
200 100 m 1x88
 500 100 l 1
 500 0 l 1
 200 0 l 1x84
 200 100 l 1x88
100 600 m 1x58
 200 600 l 1
 200 100 l 1x98
 100 100 l 1
 100 600 l 1x58
200 700 m 1x14
 500 700 l 1x14
 500 600 l 1x24
 200 600 l 1x18
 200 700 l 1x14
500 600 m 1x24
 600 600 l 1
 600 500 l 1
 500 500 l 1x22
 500 600 l 1x24
EndSplineSet
Validated: 5
EndChar

StartChar: d
Encoding: 69 100 69
Width: 700
VWidth: 0
HStem: 0 100<200 500> 600 100<200 500> 880 20G<500 600>
VStem: 100 100<100 600> 500 100<100 600 700 900>
LayerCount: 2
Fore
SplineSet
100 600 m 1
 200 600 l 1
 200 100 l 1
 100 100 l 1
 100 600 l 1
500 900 m 1
 600 900 l 1
 600 0 l 1
 200 0 l 1
 200 100 l 1
 500 100 l 1
 500 600 l 1
 200 600 l 1
 200 700 l 1
 500 700 l 1
 500 900 l 1
EndSplineSet
Validated: 5
EndChar

StartChar: e
Encoding: 70 101 70
Width: 700
VWidth: 0
HStem: 0 100<200 500> 100 100<500 600> 300 100<200 500> 600 100<200 500>
VStem: 100 100<100 300 400 600> 200 300<0 100 600 700> 500 100<100 200 400 600>
LayerCount: 2
Fore
SplineSet
500 200 m 1x72
 600 200 l 1
 600 100 l 1x72
 500 100 l 1xb4
 500 200 l 1x72
200 100 m 1xb8
 500 100 l 1
 500 0 l 1
 200 0 l 1xb4
 200 100 l 1xb8
100 600 m 1x7a
 200 600 l 1
 200 400 l 1
 500 400 l 1x7a
 500 600 l 1x74
 600 600 l 1
 600 300 l 1
 200 300 l 1
 200 100 l 1xba
 100 100 l 1
 100 600 l 1x7a
200 700 m 1x34
 500 700 l 1
 500 600 l 1x34
 200 600 l 1x38
 200 700 l 1x34
EndSplineSet
Validated: 5
EndChar

StartChar: f
Encoding: 71 102 71
Width: 600
VWidth: 0
HStem: 0 21G<200 300> 500 100<100 200 300 500> 800 100<300 500>
VStem: 200 100<0 500 600 800> 300 200<800 900>
LayerCount: 2
Fore
SplineSet
200 800 m 1xf0
 300 800 l 1
 300 600 l 1xf0
 500 600 l 1
 500 500 l 1xe8
 300 500 l 1
 300 0 l 1
 200 0 l 1
 200 500 l 1
 100 500 l 1
 100 600 l 1
 200 600 l 1
 200 800 l 1xf0
300 900 m 1xe8
 500 900 l 1
 500 800 l 1xe8
 300 800 l 1xf0
 300 900 l 1xe8
EndSplineSet
Validated: 5
EndChar

StartChar: g
Encoding: 72 103 72
Width: 700
VWidth: 0
HStem: -200 100<200 500> -100 100<100 200> 100 100<200 500> 600 100<200 500>
VStem: 100 100<-100 0 200 600> 500 100<-100 100 200 600>
LayerCount: 2
Fore
SplineSet
100 0 m 1x7c
 200 0 l 1x7c
 200 -100 l 1xbc
 100 -100 l 1
 100 0 l 1x7c
200 -100 m 1xbc
 500 -100 l 1
 500 -200 l 1
 200 -200 l 1
 200 -100 l 1xbc
200 700 m 1
 600 700 l 1
 600 -100 l 1x7c
 500 -100 l 1
 500 100 l 1
 200 100 l 1
 200 200 l 1
 500 200 l 1
 500 600 l 1
 200 600 l 1
 200 700 l 1
100 600 m 1
 200 600 l 1
 200 200 l 1
 100 200 l 1
 100 600 l 1
EndSplineSet
Validated: 5
EndChar

StartChar: h
Encoding: 73 104 73
Width: 700
VWidth: 0
HStem: 0 21G<100 200 500 600> 600 100<200 500> 880 20G<100 200>
VStem: 100 100<0 600 700 900> 500 100<0 600>
LayerCount: 2
Fore
SplineSet
500 600 m 1
 600 600 l 1
 600 0 l 1
 500 0 l 1
 500 600 l 1
100 900 m 1
 200 900 l 1
 200 700 l 1
 500 700 l 1
 500 600 l 1
 200 600 l 1
 200 0 l 1
 100 0 l 1
 100 900 l 1
EndSplineSet
Validated: 5
EndChar

StartChar: i
Encoding: 74 105 74
Width: 500
VWidth: 0
HStem: 0 21G<200 300> 680 20G<200 300> 800 100<200 300>
VStem: 200 100<0 700 800 900>
LayerCount: 2
Fore
SplineSet
200 700 m 1
 300 700 l 1
 300 0 l 1
 200 0 l 1
 200 700 l 1
200 900 m 1
 300 900 l 1
 300 800 l 1
 200 800 l 1
 200 900 l 1
EndSplineSet
EndChar

StartChar: j
Encoding: 75 106 75
Width: 700
VWidth: 0
HStem: -200 100<200 500> -100 100<100 200> 680 20G<500 600> 800 100<500 600>
VStem: 100 100<-100 0> 500 100<-100 700 800 900>
LayerCount: 2
Fore
SplineSet
500 900 m 1x3c
 600 900 l 1
 600 800 l 1
 500 800 l 1
 500 900 l 1x3c
500 700 m 1
 600 700 l 1
 600 -100 l 1x7c
 500 -100 l 1xbc
 500 700 l 1
200 -100 m 1xbc
 500 -100 l 1
 500 -200 l 1
 200 -200 l 1
 200 -100 l 1xbc
100 0 m 1x7c
 200 0 l 1x7c
 200 -100 l 1xbc
 100 -100 l 1
 100 0 l 1x7c
EndSplineSet
Validated: 5
EndChar

StartChar: k
Encoding: 76 107 76
Width: 700
VWidth: 0
HStem: 0 100<500 600> 100 100<400 500> 200 100<300 400> 400 100<300 400> 500 100<400 500> 600 100<500 600> 880 20G<100 200>
VStem: 100 200<300 400> 100 100<0 300 400 900> 300 100<200 300 400 500> 400 100<100 200 500 600> 500 100<0 100 600 700>
LayerCount: 2
Fore
SplineSet
500 100 m 1x8220
 600 100 l 1
 600 0 l 1
 500 0 l 1x8210
 500 100 l 1x8220
400 200 m 1x4240
 500 200 l 1x4220
 500 100 l 1x8220
 400 100 l 1x4220
 400 200 l 1x4240
300 300 m 1x23
 400 300 l 1x2240
 400 200 l 1x4240
 300 200 l 1x2240
 300 300 l 1x23
100 900 m 1xb280
 200 900 l 1
 200 400 l 1xb280
 300 400 l 1
 300 300 l 1xb3
 200 300 l 1
 200 0 l 1
 100 0 l 1
 100 900 l 1xb280
300 500 m 1x1240
 400 500 l 1
 400 400 l 1x1240
 300 400 l 1x13
 300 500 l 1x1240
400 600 m 1x0a20
 500 600 l 1
 500 500 l 1x0a20
 400 500 l 1x1240
 400 600 l 1x0a20
500 700 m 1x0610
 600 700 l 1
 600 600 l 1x0610
 500 600 l 1x0a20
 500 700 l 1x0610
EndSplineSet
Validated: 5
EndChar

StartChar: l
Encoding: 77 108 77
Width: 500
VWidth: 0
HStem: 0 100<300 400> 880 20G<200 300>
VStem: 200 100<100 900> 300 100<0 100>
LayerCount: 2
Fore
SplineSet
200 900 m 1xe0
 300 900 l 1
 300 100 l 1
 200 100 l 1
 200 900 l 1xe0
300 100 m 1
 400 100 l 1
 400 0 l 1
 300 0 l 1xd0
 300 100 l 1
EndSplineSet
Validated: 5
EndChar

StartChar: m
Encoding: 78 109 78
Width: 900
VWidth: 0
HStem: 0 21G<100 200 700 800> 600 100<200 400 500 700>
VStem: 100 100<0 600> 400 100<200 600> 500 200<600 700> 700 100<0 600>
LayerCount: 2
Fore
SplineSet
700 600 m 1xe8
 800 600 l 1
 800 0 l 1
 700 0 l 1xe4
 700 600 l 1xe8
500 700 m 1xe8
 700 700 l 1
 700 600 l 1xe8
 500 600 l 1xf0
 500 700 l 1xe8
400 600 m 1xf0
 500 600 l 1
 500 200 l 1
 400 200 l 1
 400 600 l 1xf0
100 700 m 1
 400 700 l 1
 400 600 l 1
 200 600 l 1
 200 0 l 1
 100 0 l 1
 100 700 l 1
EndSplineSet
Validated: 5
EndChar

StartChar: n
Encoding: 79 110 79
Width: 700
VWidth: 0
HStem: 0 21G<100 200 500 600> 600 100<200 500>
VStem: 100 100<0 600> 500 100<0 600>
LayerCount: 2
Fore
SplineSet
500 600 m 1
 600 600 l 1
 600 0 l 1
 500 0 l 1
 500 600 l 1
100 700 m 1
 500 700 l 1
 500 600 l 1
 200 600 l 1
 200 0 l 1
 100 0 l 1
 100 700 l 1
EndSplineSet
Validated: 5
EndChar

StartChar: o
Encoding: 80 111 80
Width: 700
VWidth: 0
HStem: 0 100<200 500> 600 100<200 500>
VStem: 100 100<100 600> 200 300<0 100 600 700> 500 100<100 600>
LayerCount: 2
Fore
SplineSet
500 600 m 1xd0
 600 600 l 1
 600 100 l 1xc8
 500 100 l 1
 500 600 l 1xd0
200 100 m 1xe0
 500 100 l 1
 500 0 l 1
 200 0 l 1xd0
 200 100 l 1xe0
100 600 m 1xe0
 200 600 l 1
 200 100 l 1
 100 100 l 1
 100 600 l 1xe0
200 700 m 1xd0
 500 700 l 1
 500 600 l 1xd0
 200 600 l 1xe0
 200 700 l 1xd0
EndSplineSet
Validated: 5
EndChar

StartChar: p
Encoding: 81 112 81
Width: 700
VWidth: 0
HStem: -200 21G<100 200> 0 100<200 500> 600 100<200 500>
VStem: 100 100<-200 0 100 600> 500 100<100 600>
LayerCount: 2
Fore
SplineSet
500 600 m 1
 600 600 l 1
 600 100 l 1
 500 100 l 1
 500 600 l 1
100 700 m 1
 500 700 l 1
 500 600 l 1
 200 600 l 1
 200 100 l 1
 500 100 l 1
 500 0 l 1
 200 0 l 1
 200 -200 l 1
 100 -200 l 1
 100 700 l 1
EndSplineSet
Validated: 5
EndChar

StartChar: q
Encoding: 82 113 82
Width: 700
VWidth: 0
HStem: -200 21G<500 600> 0 100<200 500> 600 100<200 500>
VStem: 100 100<100 600> 500 100<-200 0 100 600>
LayerCount: 2
Fore
SplineSet
200 700 m 1
 600 700 l 1
 600 -200 l 1
 500 -200 l 1
 500 0 l 1
 200 0 l 1
 200 100 l 1
 500 100 l 1
 500 600 l 1
 200 600 l 1
 200 700 l 1
100 600 m 1
 200 600 l 1
 200 100 l 1
 100 100 l 1
 100 600 l 1
EndSplineSet
Validated: 5
EndChar

StartChar: r
Encoding: 83 114 83
Width: 700
VWidth: 0
HStem: 0 21G<100 200> 500 100<300 400> 600 100<400 600>
VStem: 100 200<400 500> 100 100<0 400 500 700> 300 100<500 600> 400 200<600 700>
LayerCount: 2
Fore
SplineSet
400 700 m 1xa2
 600 700 l 1
 600 600 l 1xa2
 400 600 l 1xc4
 400 700 l 1xa2
300 600 m 1xc4
 400 600 l 1
 400 500 l 1xc4
 300 500 l 1xd0
 300 600 l 1xc4
100 700 m 1xa8
 200 700 l 1xa8
 200 500 l 1xc8
 300 500 l 1
 300 400 l 1xd0
 200 400 l 1
 200 0 l 1
 100 0 l 1
 100 700 l 1xa8
EndSplineSet
Validated: 5
EndChar

StartChar: s
Encoding: 84 115 84
Width: 700
VWidth: 0
HStem: 0 100<200 500> 100 200<500 600> 100 100<100 200> 300 100<200 500> 400 200<100 200> 500 100<500 600> 600 100<200 500>
VStem: 100 100<100 200 400 600> 200 300<0 100 300 400 600 700> 500 100<100 300 500 600>
LayerCount: 2
Fore
SplineSet
100 600 m 1x09
 200 600 l 1x09
 200 400 l 1x11
 100 400 l 1
 100 600 l 1x09
500 300 m 1x4080
 600 300 l 1
 600 100 l 1x4040
 500 100 l 1x8080
 500 300 l 1x4080
200 100 m 1x81
 500 100 l 1
 500 0 l 1
 200 0 l 1x8080
 200 100 l 1x81
100 200 m 1x21
 200 200 l 1x21
 200 100 l 1x81
 100 100 l 1
 100 200 l 1x21
200 400 m 1x11
 500 400 l 1x1080
 500 300 l 1x4080
 200 300 l 1x1080
 200 400 l 1x11
500 600 m 1x0480
 600 600 l 1
 600 500 l 1
 500 500 l 1x0440
 500 600 l 1x0480
200 700 m 1x0280
 500 700 l 1x0280
 500 600 l 1x0480
 200 600 l 1x09
 200 700 l 1x0280
EndSplineSet
Validated: 5
EndChar

StartChar: t
Encoding: 85 116 85
Width: 600
VWidth: 0
HStem: 0 100<300 500> 600 100<100 200 300 500>
VStem: 200 100<100 600 700 800> 300 200<0 100>
LayerCount: 2
Fore
SplineSet
200 800 m 1xe0
 300 800 l 1
 300 700 l 1xe0
 500 700 l 1
 500 600 l 1xd0
 300 600 l 1
 300 100 l 1
 200 100 l 1
 200 600 l 1
 100 600 l 1
 100 700 l 1
 200 700 l 1
 200 800 l 1xe0
300 100 m 1
 500 100 l 1
 500 0 l 1
 300 0 l 1xd0
 300 100 l 1
EndSplineSet
Validated: 5
EndChar

StartChar: u
Encoding: 86 117 86
Width: 700
VWidth: 0
HStem: 0 100<200 500> 680 20G<100 200 500 600>
VStem: 100 100<100 700> 500 100<100 700>
LayerCount: 2
Fore
SplineSet
500 700 m 1
 600 700 l 1
 600 100 l 1
 500 100 l 1
 500 700 l 1
200 100 m 1
 500 100 l 1
 500 0 l 1
 200 0 l 1
 200 100 l 1
100 700 m 1
 200 700 l 1
 200 100 l 1
 100 100 l 1
 100 700 l 1
EndSplineSet
Validated: 5
EndChar

StartChar: v
Encoding: 87 118 87
Width: 700
VWidth: 0
HStem: 0 100<300 400> 100 100<200 300 400 500> 680 20G<100 200 500 600>
VStem: 100 100<200 700> 200 100<100 200> 300 100<0 100> 400 100<100 200> 500 100<200 700>
LayerCount: 2
Fore
SplineSet
500 700 m 1x61
 600 700 l 1
 600 200 l 1x61
 500 200 l 1x62
 500 700 l 1x61
400 200 m 1x62
 500 200 l 1
 500 100 l 1x62
 400 100 l 1xa4
 400 200 l 1x62
300 100 m 1xa8
 400 100 l 1
 400 0 l 1
 300 0 l 1xa4
 300 100 l 1xa8
200 200 m 1x70
 300 200 l 1x68
 300 100 l 1xa8
 200 100 l 1x68
 200 200 l 1x70
100 700 m 1x70
 200 700 l 1
 200 200 l 1
 100 200 l 1
 100 700 l 1x70
EndSplineSet
Validated: 5
EndChar

StartChar: w
Encoding: 88 119 88
Width: 900
VWidth: 0
HStem: 0 100<200 400 500 700> 680 20G<100 200 700 800>
VStem: 100 100<100 700> 200 200<0 100> 400 100<100 500> 500 200<0 100> 700 100<100 700>
LayerCount: 2
Fore
SplineSet
700 700 m 1xc2
 800 700 l 1
 800 100 l 1xc2
 700 100 l 1xc4
 700 700 l 1xc2
500 100 m 1xc8
 700 100 l 1
 700 0 l 1
 500 0 l 1xc4
 500 100 l 1xc8
400 500 m 1xc8
 500 500 l 1
 500 100 l 1xc8
 400 100 l 1xd0
 400 500 l 1xc8
200 100 m 1xe0
 400 100 l 1
 400 0 l 1
 200 0 l 1xd0
 200 100 l 1xe0
100 700 m 1xe0
 200 700 l 1
 200 100 l 1
 100 100 l 1
 100 700 l 1xe0
EndSplineSet
Validated: 5
EndChar

StartChar: x
Encoding: 89 120 89
Width: 700
VWidth: 0
HStem: 0 200<100 200 500 600> 200 100<200 300 400 500> 300 100<300 400> 400 100<200 300 400 500> 500 200<100 200 500 600>
VStem: 100 100<0 200 500 700> 200 100<200 300 400 500> 300 100<300 400> 400 100<200 300 400 500> 500 100<0 200 500 700>
LayerCount: 2
Fore
SplineSet
100 200 m 1x84
 200 200 l 1
 200 0 l 1
 100 0 l 1
 100 200 l 1x84
200 300 m 1x42
 300 300 l 1
 300 200 l 1x42
 200 200 l 1x84
 200 300 l 1x42
300 400 m 1x22
 400 400 l 1x21
 400 300 l 1x41
 300 300 l 1x42
 300 400 l 1x22
400 500 m 1x1080
 500 500 l 1
 500 400 l 1x1080
 400 400 l 1x21
 400 500 l 1x1080
500 700 m 1x0840
 600 700 l 1
 600 500 l 1x0840
 500 500 l 1x1080
 500 700 l 1x0840
500 200 m 1x8080
 600 200 l 1
 600 0 l 1
 500 0 l 1x8040
 500 200 l 1x8080
400 300 m 1x41
 500 300 l 1x4080
 500 200 l 1x8080
 400 200 l 1x4080
 400 300 l 1x41
200 500 m 1x14
 300 500 l 1x12
 300 400 l 1x22
 200 400 l 1x12
 200 500 l 1x14
100 700 m 1x0c
 200 700 l 1x0c
 200 500 l 1x14
 100 500 l 1
 100 700 l 1x0c
EndSplineSet
Validated: 5
EndChar

StartChar: y
Encoding: 90 121 90
Width: 700
VWidth: 0
HStem: -200 100<200 500> -100 100<100 200> 100 100<200 500> 680 20G<100 200 500 600>
VStem: 100 100<-100 0 200 700> 500 100<-100 100 200 700>
LayerCount: 2
Fore
SplineSet
100 0 m 1x7c
 200 0 l 1x7c
 200 -100 l 1xbc
 100 -100 l 1
 100 0 l 1x7c
200 -100 m 1xbc
 500 -100 l 1
 500 -200 l 1
 200 -200 l 1
 200 -100 l 1xbc
500 700 m 1
 600 700 l 1
 600 -100 l 1x7c
 500 -100 l 1
 500 100 l 1
 200 100 l 1
 200 200 l 1
 500 200 l 1
 500 700 l 1
100 700 m 1
 200 700 l 1
 200 200 l 1
 100 200 l 1
 100 700 l 1
EndSplineSet
Validated: 5
EndChar

StartChar: z
Encoding: 91 122 91
Width: 700
VWidth: 0
HStem: 0 200<100 200> 0 100<200 600> 200 100<200 300> 300 100<300 400> 400 100<400 500> 500 200<500 600> 600 100<100 500>
VStem: 100 100<100 200> 200 100<200 300> 300 100<300 400> 400 100<400 500> 500 100<500 600>
LayerCount: 2
Fore
SplineSet
100 200 m 1x8110
 200 200 l 1x8110
 200 100 l 1
 600 100 l 1
 600 0 l 1x4110
 100 0 l 1
 100 200 l 1x8110
200 200 m 1
 200 300 l 1
 300 300 l 1
 300 200 l 1x2080
 200 200 l 1
300 300 m 1
 300 400 l 1
 400 400 l 1
 400 300 l 1x1040
 300 300 l 1
400 400 m 1
 400 500 l 1
 500 500 l 1
 500 400 l 1x0820
 400 400 l 1
100 700 m 1x0b10
 600 700 l 1
 600 500 l 1x0510
 500 500 l 1x0820
 500 600 l 1
 100 600 l 1
 100 700 l 1x0b10
EndSplineSet
Validated: 5
EndChar

StartChar: braceleft
Encoding: 92 123 92
Width: 700
VWidth: 0
HStem: 0 100<400 600> 400 100<200 300> 800 100<400 600>
VStem: 200 100<400 500> 300 100<100 400 500 800> 400 200<0 100 800 900>
CounterMasks: 1 e0
LayerCount: 2
Fore
SplineSet
200 500 m 1xf0
 300 500 l 1
 300 400 l 1
 200 400 l 1
 200 500 l 1xf0
300 800 m 1xe8
 400 800 l 1
 400 500 l 1xe8
 300 500 l 1xf0
 300 800 l 1xe8
400 900 m 1xe4
 600 900 l 1
 600 800 l 1xe4
 400 800 l 1xe8
 400 900 l 1xe4
400 100 m 1xe8
 600 100 l 1
 600 0 l 1
 400 0 l 1xe4
 400 100 l 1xe8
300 400 m 1xf0
 400 400 l 1
 400 100 l 1
 300 100 l 1xe8
 300 400 l 1xf0
EndSplineSet
Validated: 5
EndChar

StartChar: bar
Encoding: 93 124 93
Width: 500
VWidth: 0
HStem: 0 21G<200 300> 880 20G<200 300>
VStem: 200 100<0 900>
LayerCount: 2
Fore
SplineSet
200 900 m 1
 300 900 l 1
 300 0 l 1
 200 0 l 1
 200 900 l 1
EndSplineSet
EndChar

StartChar: braceright
Encoding: 94 125 94
Width: 700
VWidth: 0
HStem: 0 100<100 300> 400 100<400 500> 800 100<100 300>
VStem: 100 200<0 100 800 900> 300 100<100 400 500 800> 400 100<400 500>
CounterMasks: 1 e0
LayerCount: 2
Fore
SplineSet
100 100 m 1xf0
 300 100 l 1
 300 0 l 1
 100 0 l 1
 100 100 l 1xf0
300 400 m 1xe8
 400 400 l 1
 400 100 l 1xe8
 300 100 l 1xf0
 300 400 l 1xe8
400 500 m 1
 500 500 l 1
 500 400 l 1xe4
 400 400 l 1
 400 500 l 1
300 800 m 1xf0
 400 800 l 1
 400 500 l 1
 300 500 l 1xe8
 300 800 l 1xf0
100 900 m 1xf0
 300 900 l 1
 300 800 l 1
 100 800 l 1
 100 900 l 1xf0
EndSplineSet
Validated: 5
EndChar

StartChar: asciitilde
Encoding: 95 126 95
Width: 800
VWidth: 0
HStem: 700 100<100 200 400 600> 800 100<200 400 600 700>
VStem: 100 100<700 800> 200 200<800 900> 400 200<700 800> 600 100<800 900>
LayerCount: 2
Fore
SplineSet
400 800 m 1x90
 600 800 l 1
 600 700 l 1
 400 700 l 1x88
 400 800 l 1x90
600 900 m 1x44
 700 900 l 1
 700 800 l 1x44
 600 800 l 1x88
 600 900 l 1x44
100 800 m 1xa0
 200 800 l 1
 200 700 l 1
 100 700 l 1
 100 800 l 1xa0
200 900 m 1x50
 400 900 l 1x50
 400 800 l 1x90
 200 800 l 1xa0
 200 900 l 1x50
EndSplineSet
Validated: 5
EndChar

StartChar: cent
Encoding: 98 162 98
Width: 700
VWidth: 0
HStem: -200 21G<300 400> 0 100<200 300 400 500> 100 100<500 600> 500 100<500 600> 600 100<200 300 400 500> 880 20G<300 400>
VStem: 100 100<100 600> 200 300<0 100 600 700> 300 100<-200 0 100 600 700 900> 500 100<100 200 500 600>
LayerCount: 2
Fore
SplineSet
500 200 m 1xa440
 600 200 l 1
 600 100 l 1xa440
 500 100 l 1xc5
 500 200 l 1xa440
300 900 m 1xcc80
 400 900 l 1
 400 700 l 1xcc80
 500 700 l 1xcd
 500 600 l 1x95
 400 600 l 1
 400 100 l 1xcc80
 500 100 l 1
 500 0 l 1xcd
 400 0 l 1
 400 -200 l 1
 300 -200 l 1
 300 0 l 1xcc80
 200 0 l 1xcd
 200 100 l 1
 300 100 l 1
 300 600 l 1
 200 600 l 1xce80
 200 700 l 1xcd
 300 700 l 1
 300 900 l 1xcc80
100 600 m 1xae
 200 600 l 1
 200 100 l 1xce
 100 100 l 1
 100 600 l 1xae
500 600 m 1x95
 600 600 l 1
 600 500 l 1
 500 500 l 1x9440
 500 600 l 1x95
EndSplineSet
Validated: 5
EndChar

StartChar: sterling
Encoding: 99 163 99
Width: 800
VWidth: 0
HStem: 0 100<100 200 300 600> 100 100<600 700> 400 100<100 200 300 500> 700 100<600 700> 800 100<300 600>
VStem: 200 100<100 400 500 800> 600 100<100 200 700 800>
LayerCount: 2
Fore
SplineSet
600 200 m 1x66
 700 200 l 1
 700 100 l 1x66
 600 100 l 1xa6
 600 200 l 1x66
200 800 m 1xae
 300 800 l 1
 300 500 l 1
 500 500 l 1
 500 400 l 1
 300 400 l 1
 300 100 l 1
 600 100 l 1
 600 0 l 1
 100 0 l 1
 100 100 l 1
 200 100 l 1
 200 400 l 1
 100 400 l 1
 100 500 l 1
 200 500 l 1
 200 800 l 1xae
300 900 m 1
 600 900 l 1x2e
 600 800 l 1x36
 300 800 l 1
 300 900 l 1
600 800 m 1x36
 700 800 l 1
 700 700 l 1
 600 700 l 1
 600 800 l 1x36
EndSplineSet
Validated: 5
EndChar

StartChar: yen
Encoding: 100 165 100
Width: 700
VWidth: 0
HStem: 0 21G<300 400> 100 100<100 300 400 600> 300 100<100 300 400 600> 500 100<200 300 400 500> 600 300<100 200 500 600>
VStem: 100 100<600 900> 200 100<500 600> 300 100<0 100 200 300 400 500> 400 100<500 600> 500 100<600 900>
LayerCount: 2
Fore
SplineSet
100 900 m 1xec
 200 900 l 1xec
 200 600 l 1xf4
 100 600 l 1
 100 900 l 1xec
200 600 m 1xf4
 300 600 l 1
 300 500 l 1
 200 500 l 1xf2
 200 600 l 1xf4
300 500 m 1
 400 500 l 1
 400 400 l 1
 600 400 l 1
 600 300 l 1
 400 300 l 1
 400 200 l 1
 600 200 l 1
 600 100 l 1
 400 100 l 1
 400 0 l 1
 300 0 l 1
 300 100 l 1
 100 100 l 1
 100 200 l 1
 300 200 l 1
 300 300 l 1
 100 300 l 1
 100 400 l 1
 300 400 l 1xf540
 300 500 l 1
400 600 m 1xf080
 500 600 l 1
 500 500 l 1xf080
 400 500 l 1xf1
 400 600 l 1xf080
500 900 m 1xe840
 600 900 l 1
 600 600 l 1xe840
 500 600 l 1xf080
 500 900 l 1xe840
EndSplineSet
Validated: 5
EndChar

StartChar: brokenbar
Encoding: 101 166 101
Width: 500
VWidth: 0
HStem: 0 21G<200 300> 880 20G<200 300>
VStem: 200 100<0 400 500 900>
LayerCount: 2
Fore
SplineSet
200 400 m 1
 300 400 l 1
 300 0 l 1
 200 0 l 1
 200 400 l 1
200 900 m 1
 300 900 l 1
 300 500 l 1
 200 500 l 1
 200 900 l 1
EndSplineSet
EndChar

StartChar: dieresis
Encoding: 102 168 102
Width: 700
VWidth: 0
HStem: 800 100<200 300 400 500>
VStem: 200 100<800 900> 400 100<800 900>
LayerCount: 2
Fore
SplineSet
200 900 m 1
 300 900 l 1
 300 800 l 1
 200 800 l 1
 200 900 l 1
400 900 m 1
 500 900 l 1
 500 800 l 1
 400 800 l 1
 400 900 l 1
EndSplineSet
EndChar

StartChar: copyright
Encoding: 103 169 103
Width: 900
VWidth: 0
HStem: 0 100<200 700> 200 100<400 600> 600 100<400 600> 800 100<200 700>
VStem: 100 100<100 800> 300 100<300 600> 400 200<200 300 600 700> 700 100<100 800>
LayerCount: 2
Fore
SplineSet
400 300 m 1xfd
 600 300 l 1
 600 200 l 1
 400 200 l 1xfb
 400 300 l 1xfd
300 600 m 1xfd
 400 600 l 1
 400 300 l 1
 300 300 l 1
 300 600 l 1xfd
400 700 m 1xfb
 600 700 l 1
 600 600 l 1xfb
 400 600 l 1xfd
 400 700 l 1xfb
700 800 m 1
 800 800 l 1
 800 100 l 1
 700 100 l 1
 700 800 l 1
200 100 m 1
 700 100 l 1
 700 0 l 1
 200 0 l 1
 200 100 l 1
100 800 m 1
 200 800 l 1
 200 100 l 1
 100 100 l 1
 100 800 l 1
200 900 m 1
 700 900 l 1
 700 800 l 1
 200 800 l 1
 200 900 l 1
EndSplineSet
Validated: 5
EndChar

StartChar: logicalnot
Encoding: 105 172 105
Width: 700
VWidth: 0
HStem: 400 100<100 500>
VStem: 500 100<200 400>
LayerCount: 2
Fore
SplineSet
100 500 m 1
 600 500 l 1
 600 200 l 1
 500 200 l 1
 500 400 l 1
 100 400 l 1
 100 500 l 1
EndSplineSet
EndChar

StartChar: registered
Encoding: 106 174 106
Width: 900
VWidth: 0
HStem: 0 100<200 700> 200 100<500 600> 400 200<500 600> 600 100<400 500> 800 100<200 700>
VStem: 100 100<100 800> 300 200<300 400 600 700> 300 100<200 300 400 600> 500 100<200 300 400 600> 700 100<100 800>
LayerCount: 2
Fore
SplineSet
500 300 m 1xce40
 600 300 l 1
 600 200 l 1
 500 200 l 1xccc0
 500 300 l 1xce40
500 600 m 1xee40
 600 600 l 1
 600 400 l 1xecc0
 500 400 l 1
 500 600 l 1xee40
700 800 m 1
 800 800 l 1
 800 100 l 1
 700 100 l 1
 700 800 l 1
200 100 m 1
 700 100 l 1
 700 0 l 1
 200 0 l 1
 200 100 l 1
100 800 m 1
 200 800 l 1
 200 100 l 1
 100 100 l 1
 100 800 l 1
200 900 m 1
 700 900 l 1
 700 800 l 1
 200 800 l 1
 200 900 l 1
300 700 m 1xde40
 500 700 l 1xde40
 500 600 l 1xee40
 400 600 l 1xdd40
 400 400 l 1xed40
 500 400 l 1
 500 300 l 1xee40
 400 300 l 1
 400 200 l 1
 300 200 l 1xed40
 300 700 l 1xde40
EndSplineSet
Validated: 5
EndChar

StartChar: degree
Encoding: 107 176 107
Width: 600
VWidth: 0
HStem: 500 100<200 400> 600 200<100 200 400 500> 800 100<200 400>
VStem: 100 100<600 800> 200 200<500 600 800 900> 400 100<600 800>
LayerCount: 2
Fore
SplineSet
400 800 m 1x48
 500 800 l 1
 500 600 l 1x44
 400 600 l 1x88
 400 800 l 1x48
200 600 m 1x90
 400 600 l 1
 400 500 l 1
 200 500 l 1x88
 200 600 l 1x90
100 800 m 1x50
 200 800 l 1x50
 200 600 l 1x90
 100 600 l 1
 100 800 l 1x50
200 900 m 1x28
 400 900 l 1x28
 400 800 l 1x48
 200 800 l 1x50
 200 900 l 1x28
EndSplineSet
Validated: 5
EndChar

StartChar: plusminus
Encoding: 108 177 108
Width: 700
VWidth: 0
HStem: 0 100<100 600> 400 100<100 300 400 600> 680 20G<300 400>
VStem: 300 100<200 400 500 700>
LayerCount: 2
Fore
SplineSet
100 100 m 1
 600 100 l 1
 600 0 l 1
 100 0 l 1
 100 100 l 1
300 700 m 1
 400 700 l 1
 400 500 l 1
 600 500 l 1
 600 400 l 1
 400 400 l 1
 400 200 l 1
 300 200 l 1
 300 400 l 1
 100 400 l 1
 100 500 l 1
 300 500 l 1
 300 700 l 1
EndSplineSet
EndChar

StartChar: acute
Encoding: 109 180 109
Width: 500
VWidth: 0
HStem: 700 100<200 300> 800 100<300 400>
VStem: 200 100<700 800> 300 100<800 900>
LayerCount: 2
Fore
SplineSet
200 800 m 1xa0
 300 800 l 1
 300 700 l 1
 200 700 l 1
 200 800 l 1xa0
300 900 m 1x50
 400 900 l 1
 400 800 l 1x50
 300 800 l 1xa0
 300 900 l 1x50
EndSplineSet
Validated: 5
EndChar

StartChar: mu
Encoding: 110 181 110
Width: 700
VWidth: 0
Flags: W
HStem: -199 21G<100 200> 100 100<200 500> 680 20G<100 200 500 600>
VStem: 100 100<-199 700> 500 100<200 700>
LayerCount: 2
Fore
SplineSet
500 700 m 1
 600 700 l 1
 600 200 l 1
 500 200 l 1
 500 100 l 1
 200 100 l 1
 200 200 l 1
 500 200 l 1
 500 700 l 1
100 700 m 1
 200 700 l 1
 200 -199 l 1
 100 -199 l 1
 100 700 l 1
EndSplineSet
EndChar

StartChar: paragraph
Encoding: 111 182 111
Width: 900
VWidth: 0
HStem: 0 21G<400 500 700 800> 800 100<500 700>
VStem: 100 400<500 800> 400 100<0 400> 700 100<0 800>
LayerCount: 2
Fore
SplineSet
200 900 m 1xe8
 800 900 l 1
 800 0 l 1
 700 0 l 1
 700 800 l 1
 500 800 l 1xe8
 500 0 l 1
 400 0 l 1
 400 400 l 1xd8
 200 400 l 1
 200 500 l 1
 100 500 l 1
 100 800 l 1
 200 800 l 1
 200 900 l 1xe8
EndSplineSet
EndChar

StartChar: cedilla
Encoding: 113 184 113
Width: 500
VWidth: 0
HStem: -300 100<100 300> -200 100<300 400> -100 100<200 300>
VStem: 100 200<-300 -200> 200 100<-100 0> 300 100<-200 -100>
LayerCount: 2
Fore
SplineSet
300 -100 m 1x48
 400 -100 l 1
 400 -200 l 1x44
 300 -200 l 1x90
 300 -100 l 1x48
100 -200 m 1x90
 300 -200 l 1
 300 -300 l 1
 100 -300 l 1
 100 -200 l 1x90
200 0 m 1x28
 300 0 l 1x28
 300 -100 l 1x48
 200 -100 l 1
 200 0 l 1x28
EndSplineSet
Validated: 5
EndChar

StartChar: AE
Encoding: 122 198 122
Width: 1100
VWidth: 0
HStem: 0 100<600 1000> 300 100<200 500> 400 100<600 800> 800 100<200 500 600 1000>
VStem: 100 100<0 300 400 800> 500 100<100 300 500 800>
LayerCount: 2
Fore
SplineSet
200 900 m 1xdc
 1000 900 l 1
 1000 800 l 1
 600 800 l 1
 600 500 l 1
 800 500 l 1
 800 400 l 1
 600 400 l 1xbc
 600 100 l 1
 1000 100 l 1
 1000 0 l 1
 500 0 l 1
 500 300 l 1
 200 300 l 1
 200 0 l 1
 100 0 l 1
 100 800 l 1
 200 800 l 1
 200 400 l 1
 500 400 l 1
 500 800 l 1
 200 800 l 1
 200 900 l 1xdc
EndSplineSet
Validated: 5
EndChar

StartChar: Ccedilla
Encoding: 123 199 123
Width: 700
VWidth: 0
HStem: -300 100<200 400> -200 100<400 500> -100 200<300 400> 0 100<200 300 400 500> 100 100<500 600> 700 100<500 600> 800 100<200 500>
VStem: 100 100<100 800> 200 200<-300 -200> 300 100<-100 0> 400 100<-200 -100> 500 100<100 200 700 800>
LayerCount: 2
Fore
SplineSet
400 -100 m 1x4040
 500 -100 l 1
 500 -200 l 1x4020
 400 -200 l 1x8080
 400 -100 l 1x4040
200 -200 m 1x8080
 400 -200 l 1
 400 -300 l 1
 200 -300 l 1
 200 -200 l 1x8080
200 100 m 1x11
 500 100 l 1
 500 0 l 1
 400 0 l 1
 400 -100 l 1x5150
 300 -100 l 1x2150
 300 0 l 1x1150
 200 0 l 1x1080
 200 100 l 1x11
500 200 m 1x0810
 600 200 l 1
 600 100 l 1x0810
 500 100 l 1x1010
 500 200 l 1x0810
100 800 m 1x0b
 200 800 l 1
 200 100 l 1x13
 100 100 l 1
 100 800 l 1x0b
200 900 m 1x0280
 500 900 l 1x0290
 500 800 l 1x0490
 200 800 l 1x0310
 200 900 l 1x0280
500 800 m 1x0410
 600 800 l 1
 600 700 l 1
 500 700 l 1
 500 800 l 1x0410
EndSplineSet
Validated: 5
EndChar

StartChar: Eth
Encoding: 132 208 132
Width: 700
VWidth: 0
HStem: 0 100<200 500> 400 100<0 100 200 400> 800 100<200 500>
VStem: 100 100<100 400 500 800> 500 100<100 800>
CounterMasks: 1 e0
LayerCount: 2
Fore
SplineSet
100 900 m 1
 500 900 l 1
 500 800 l 1
 200 800 l 1
 200 500 l 1
 400 500 l 1
 400 400 l 1
 200 400 l 1
 200 100 l 1
 500 100 l 1
 500 0 l 1
 100 0 l 1
 100 400 l 1
 0 400 l 1
 0 500 l 1
 100 500 l 1
 100 900 l 1
500 800 m 1
 600 800 l 1
 600 100 l 1
 500 100 l 1
 500 800 l 1
EndSplineSet
Validated: 5
EndChar

StartChar: multiply
Encoding: 139 215 139
Width: 700
VWidth: 0
HStem: 200 100<100 200 500 600> 300 100<200 300 400 500> 400 100<300 400> 500 100<200 300 400 500> 600 100<100 200 500 600>
VStem: 100 100<200 300 600 700> 200 100<300 400 500 600> 300 100<400 500> 400 100<300 400 500 600> 500 100<200 300 600 700>
LayerCount: 2
Fore
SplineSet
100 300 m 1x84
 200 300 l 1
 200 200 l 1
 100 200 l 1
 100 300 l 1x84
200 400 m 1x42
 300 400 l 1
 300 300 l 1x42
 200 300 l 1x84
 200 400 l 1x42
300 500 m 1x22
 400 500 l 1x21
 400 400 l 1x41
 300 400 l 1x42
 300 500 l 1x22
400 600 m 1x1080
 500 600 l 1
 500 500 l 1x1080
 400 500 l 1x21
 400 600 l 1x1080
500 700 m 1x0840
 600 700 l 1
 600 600 l 1x0840
 500 600 l 1x1080
 500 700 l 1x0840
500 300 m 1x8080
 600 300 l 1
 600 200 l 1
 500 200 l 1x8040
 500 300 l 1x8080
400 400 m 1x41
 500 400 l 1x4080
 500 300 l 1x8080
 400 300 l 1x4080
 400 400 l 1x41
200 600 m 1x14
 300 600 l 1x12
 300 500 l 1x22
 200 500 l 1x12
 200 600 l 1x14
100 700 m 1x0c
 200 700 l 1x0c
 200 600 l 1x14
 100 600 l 1
 100 700 l 1x0c
EndSplineSet
Validated: 5
EndChar

StartChar: Oslash
Encoding: 140 216 140
Width: 700
VWidth: 0
HStem: 0 100<0 100 200 500> 400 100<300 400> 800 100<200 500 600 700>
VStem: 0 100<0 100> 100 200<300 400> 100 100<100 300 400 800> 200 300<0 100 800 900> 300 100<400 500> 400 200<500 600> 500 100<100 500 600 800> 600 100<800 900>
CounterMasks: 1 e0
LayerCount: 2
Fore
SplineSet
600 900 m 1xe020
 700 900 l 1
 700 800 l 1xe020
 600 800 l 1xe040
 600 900 l 1xe020
0 100 m 1xf0
 100 100 l 1
 100 0 l 1
 0 0 l 1
 0 100 l 1xf0
200 100 m 1xe4
 500 100 l 1
 500 0 l 1
 200 0 l 1xe2
 200 100 l 1xe4
500 800 m 1
 600 800 l 1
 600 100 l 1xe040
 500 100 l 1xe2
 500 500 l 1
 400 500 l 1xe140
 400 600 l 1xe080
 500 600 l 1xe040
 500 800 l 1
300 500 m 1xe1
 400 500 l 1
 400 400 l 1xe1
 300 400 l 1xe8
 300 500 l 1xe1
100 800 m 1xe4
 200 800 l 1
 200 400 l 1xe4
 300 400 l 1
 300 300 l 1xe8
 200 300 l 1
 200 100 l 1xe4
 100 100 l 1xf0
 100 800 l 1xe4
200 900 m 1xe2
 500 900 l 1
 500 800 l 1xe2
 200 800 l 1xe4
 200 900 l 1xe2
EndSplineSet
Validated: 5
EndChar

StartChar: Thorn
Encoding: 146 222 146
Width: 700
VWidth: 0
HStem: 0 21G<100 200> 200 100<200 500> 600 100<200 500> 880 20G<100 200>
VStem: 100 100<0 200 300 600 700 900> 500 100<300 600>
LayerCount: 2
Fore
SplineSet
500 600 m 1
 600 600 l 1
 600 300 l 1
 500 300 l 1
 500 600 l 1
100 900 m 1
 200 900 l 1
 200 700 l 1
 500 700 l 1
 500 600 l 1
 200 600 l 1
 200 300 l 1
 500 300 l 1
 500 200 l 1
 200 200 l 1
 200 0 l 1
 100 0 l 1
 100 900 l 1
EndSplineSet
Validated: 5
EndChar

StartChar: germandbls
Encoding: 147 223 147
Width: 700
VWidth: 0
HStem: 0 100<300 500> 100 200<500 600> 300 100<400 500> 400 100<300 400> 500 100<400 500> 600 200<500 600> 800 100<200 500>
VStem: 100 100<0 800> 300 100<400 500> 400 100<300 400 500 600> 500 100<100 300 600 800>
LayerCount: 2
Fore
SplineSet
300 500 m 1x1180
 400 500 l 1x1180
 400 400 l 1x2180
 300 400 l 1
 300 500 l 1x1180
400 600 m 1x0940
 500 600 l 1
 500 500 l 1x0940
 400 500 l 1x1180
 400 600 l 1x0940
400 400 m 1x2180
 500 400 l 1x2140
 500 300 l 1x4140
 400 300 l 1x2140
 400 400 l 1x2180
100 800 m 1x83
 200 800 l 1
 200 0 l 1
 100 0 l 1
 100 800 l 1x83
500 300 m 1x4140
 600 300 l 1
 600 100 l 1x4120
 500 100 l 1x8120
 500 300 l 1x4140
300 100 m 1x81a0
 500 100 l 1
 500 0 l 1
 300 0 l 1
 300 100 l 1x81a0
500 800 m 1x0520
 600 800 l 1
 600 600 l 1x0520
 500 600 l 1x0940
 500 800 l 1x0520
200 900 m 1x0320
 500 900 l 1x0320
 500 800 l 1x0520
 200 800 l 1
 200 900 l 1x0320
EndSplineSet
Validated: 5
EndChar

StartChar: ae
Encoding: 154 230 154
Width: 1100
VWidth: 0
HStem: 0 100<200 500 600 900> 100 200<100 200> 100 100<900 1000> 300 100<200 500 600 900> 500 100<100 200> 600 100<200 500 600 900>
VStem: 100 100<100 300 500 600> 200 300<0 100 600 700> 500 100<100 300 400 600> 600 300<0 100 600 700> 900 100<100 200 400 600>
LayerCount: 2
Fore
SplineSet
900 200 m 1x2020
 1000 200 l 1
 1000 100 l 1x2020
 900 100 l 1x8040
 900 200 l 1x2020
100 600 m 1x0a
 200 600 l 1
 200 500 l 1
 100 500 l 1
 100 600 l 1x0a
600 100 m 1x8080
 900 100 l 1
 900 0 l 1
 600 0 l 1x8040
 600 100 l 1x8080
200 100 m 1x82
 500 100 l 1
 500 0 l 1
 200 0 l 1x81
 200 100 l 1x82
100 300 m 1x42
 200 300 l 1x42
 200 100 l 1x82
 100 100 l 1
 100 300 l 1x42
500 600 m 1x15
 600 600 l 1
 600 400 l 1
 900 400 l 1x14a0
 900 600 l 1x1440
 1000 600 l 1
 1000 300 l 1
 600 300 l 1
 600 100 l 1x94a0
 500 100 l 1x95
 500 300 l 1x9480
 200 300 l 1x4280
 200 400 l 1x11
 500 400 l 1x1080
 500 600 l 1x15
600 700 m 1x0440
 900 700 l 1
 900 600 l 1x0440
 600 600 l 1x0480
 600 700 l 1x0440
200 700 m 1x05
 500 700 l 1
 500 600 l 1x05
 200 600 l 1x0a
 200 700 l 1x05
EndSplineSet
Validated: 5
EndChar

StartChar: ccedilla
Encoding: 155 231 155
Width: 700
VWidth: 0
HStem: -300 100<200 400> -200 100<400 500> -100 200<300 400> 0 100<200 300 400 500> 100 100<500 600> 500 100<500 600> 600 100<200 500>
VStem: 100 100<100 600> 200 200<-300 -200> 300 100<-100 0> 400 100<-200 -100> 500 100<100 200 500 600>
LayerCount: 2
Fore
SplineSet
400 -100 m 1x4040
 500 -100 l 1
 500 -200 l 1x4020
 400 -200 l 1x8080
 400 -100 l 1x4040
200 -200 m 1x8080
 400 -200 l 1
 400 -300 l 1
 200 -300 l 1
 200 -200 l 1x8080
200 100 m 1x11
 500 100 l 1
 500 0 l 1
 400 0 l 1
 400 -100 l 1x5150
 300 -100 l 1x2150
 300 0 l 1x1150
 200 0 l 1x1080
 200 100 l 1x11
500 200 m 1x0810
 600 200 l 1
 600 100 l 1x0810
 500 100 l 1x1010
 500 200 l 1x0810
100 600 m 1x0b
 200 600 l 1
 200 100 l 1x13
 100 100 l 1
 100 600 l 1x0b
200 700 m 1x0280
 500 700 l 1x0290
 500 600 l 1x0490
 200 600 l 1x0310
 200 700 l 1x0280
500 600 m 1x0410
 600 600 l 1
 600 500 l 1
 500 500 l 1
 500 600 l 1x0410
EndSplineSet
Validated: 5
EndChar

StartChar: eth
Encoding: 164 240 164
Width: 700
VWidth: 0
HStem: 0 100<200 500> 500 100<200 500> 700 100<300 500 600 700> 880 20G<500 600>
VStem: 100 100<100 500> 500 100<100 500 600 700 800 900>
LayerCount: 2
Fore
SplineSet
100 500 m 1
 200 500 l 1
 200 100 l 1
 100 100 l 1
 100 500 l 1
500 900 m 1
 600 900 l 1
 600 800 l 1
 700 800 l 1
 700 700 l 1
 600 700 l 1
 600 0 l 1
 200 0 l 1
 200 100 l 1
 500 100 l 1
 500 500 l 1
 200 500 l 1
 200 600 l 1
 500 600 l 1
 500 700 l 1
 300 700 l 1
 300 800 l 1
 500 800 l 1
 500 900 l 1
EndSplineSet
Validated: 5
EndChar

StartChar: divide
Encoding: 171 247 171
Width: 700
VWidth: 0
Flags: H
HStem: 200 100<300 400> 400 100<100 600> 600 100<300 400>
VStem: 300 100<200 300 600 700>
CounterMasks: 1 e0
LayerCount: 2
Fore
SplineSet
300 700 m 5
 400 700 l 1
 400 600 l 1
 300 600 l 1
 300 700 l 5
300 300 m 1
 400 300 l 1
 400 200 l 1
 300 200 l 1
 300 300 l 1
100 500 m 1
 600 500 l 1
 600 400 l 1
 100 400 l 1
 100 500 l 1
EndSplineSet
EndChar

StartChar: oslash
Encoding: 172 248 172
Width: 700
VWidth: 0
HStem: 0 100<0 100 200 500> 300 100<300 400> 600 100<200 500 600 700>
VStem: 0 100<0 100> 100 200<200 300> 100 100<100 200 300 600> 200 300<0 100 600 700> 300 100<300 400> 400 200<400 500> 500 100<100 400 500 600> 600 100<600 700>
CounterMasks: 1 e0
LayerCount: 2
Fore
SplineSet
600 700 m 1xe020
 700 700 l 1
 700 600 l 1xe020
 600 600 l 1xe040
 600 700 l 1xe020
0 100 m 1xf0
 100 100 l 1
 100 0 l 1
 0 0 l 1
 0 100 l 1xf0
200 100 m 1xe4
 500 100 l 1
 500 0 l 1
 200 0 l 1xe2
 200 100 l 1xe4
500 600 m 1
 600 600 l 1
 600 100 l 1xe040
 500 100 l 1xe2
 500 400 l 1
 400 400 l 1xe140
 400 500 l 1xe080
 500 500 l 1xe040
 500 600 l 1
300 400 m 1xe1
 400 400 l 1
 400 300 l 1xe1
 300 300 l 1xe8
 300 400 l 1xe1
100 600 m 1xe4
 200 600 l 1
 200 300 l 1xe4
 300 300 l 1
 300 200 l 1xe8
 200 200 l 1
 200 100 l 1xe4
 100 100 l 1xf0
 100 600 l 1xe4
200 700 m 1xe2
 500 700 l 1
 500 600 l 1xe2
 200 600 l 1xe4
 200 700 l 1xe2
EndSplineSet
Validated: 5
EndChar

StartChar: thorn
Encoding: 178 254 178
Width: 700
VWidth: 0
HStem: -200 21G<100 200> 0 100<200 500> 600 100<200 500> 880 20G<100 200>
VStem: 100 100<-200 0 100 600 700 900> 500 100<100 600>
LayerCount: 2
Fore
SplineSet
500 600 m 1
 600 600 l 1
 600 100 l 1
 500 100 l 1
 500 600 l 1
100 900 m 1
 200 900 l 1
 200 700 l 1
 500 700 l 1
 500 600 l 1
 200 600 l 1
 200 100 l 1
 500 100 l 1
 500 0 l 1
 200 0 l 1
 200 -200 l 1
 100 -200 l 1
 100 900 l 1
EndSplineSet
Validated: 5
EndChar

StartChar: dotlessi
Encoding: 192 305 192
Width: 500
VWidth: 0
HStem: 0 21G<200 300> 680 20G<200 300>
VStem: 200 100<0 700>
LayerCount: 2
Fore
SplineSet
200 700 m 1
 300 700 l 1
 300 0 l 1
 200 0 l 1
 200 700 l 1
EndSplineSet
EndChar

StartChar: jcircumflex
Encoding: 194 309 194
Width: 700
VWidth: 0
HStem: -200 100<200 500> -100 100<100 200> 680 20G<500 600> 800 100<200 300 400 500> 900 100<300 400>
VStem: 100 100<-100 0> 200 100<800 900> 300 100<900 1000> 400 100<800 900> 500 100<-100 700>
LayerCount: 2
Fore
SplineSet
200 900 m 1x32
 300 900 l 1
 300 800 l 1
 200 800 l 1
 200 900 l 1x32
300 1000 m 1x29
 400 1000 l 1x29
 400 900 l 1x31
 300 900 l 1x32
 300 1000 l 1x29
400 900 m 1x31
 500 900 l 1
 500 800 l 1
 400 800 l 1x3080
 400 900 l 1x31
500 700 m 1xa040
 600 700 l 1
 600 -100 l 1x6040
 500 -100 l 1
 500 700 l 1xa040
200 -100 m 1xa4
 500 -100 l 1
 500 -200 l 1
 200 -200 l 1xa240
 200 -100 l 1xa4
100 0 m 1x64
 200 0 l 1x64
 200 -100 l 1xa4
 100 -100 l 1
 100 0 l 1x64
EndSplineSet
Validated: 5
EndChar

StartChar: OE
Encoding: 197 338 197
Width: 1100
VWidth: 0
HStem: 0 100<200 500 600 1000> 400 100<600 800> 800 100<200 500 600 1000>
VStem: 100 100<100 800> 500 100<100 400 500 800>
CounterMasks: 1 e0
LayerCount: 2
Fore
SplineSet
100 800 m 1
 200 800 l 1
 200 100 l 1
 100 100 l 1
 100 800 l 1
200 900 m 1
 1000 900 l 1
 1000 800 l 1
 600 800 l 1
 600 500 l 1
 800 500 l 1
 800 400 l 1
 600 400 l 1
 600 100 l 1
 1000 100 l 1
 1000 0 l 1
 200 0 l 1
 200 100 l 1
 500 100 l 1
 500 800 l 1
 200 800 l 1
 200 900 l 1
EndSplineSet
Validated: 5
EndChar

StartChar: oe
Encoding: 198 339 198
Width: 1100
VWidth: 0
HStem: 0 100<200 500 600 900> 100 100<900 1000> 300 100<600 900> 600 100<200 500 600 900>
VStem: 100 100<100 600> 200 300<0 100 600 700> 500 100<100 300 400 600> 600 300<0 100 600 700> 900 100<100 200 400 600>
LayerCount: 2
Fore
SplineSet
900 200 m 1x7080
 1000 200 l 1
 1000 100 l 1x7080
 900 100 l 1xb1
 900 200 l 1x7080
600 100 m 1xb2
 900 100 l 1
 900 0 l 1
 600 0 l 1xb1
 600 100 l 1xb2
200 100 m 1xb8
 500 100 l 1
 500 0 l 1
 200 0 l 1xb4
 200 100 l 1xb8
100 600 m 1x78
 200 600 l 1
 200 100 l 1xb8
 100 100 l 1
 100 600 l 1x78
500 600 m 1xb4
 600 600 l 1
 600 400 l 1
 900 400 l 1xb280
 900 600 l 1xb1
 1000 600 l 1
 1000 300 l 1
 600 300 l 1
 600 100 l 1xb280
 500 100 l 1
 500 600 l 1xb4
600 700 m 1x31
 900 700 l 1
 900 600 l 1x31
 600 600 l 1x32
 600 700 l 1x31
200 700 m 1x34
 500 700 l 1
 500 600 l 1x34
 200 600 l 1x38
 200 700 l 1x34
EndSplineSet
Validated: 5
EndChar

StartChar: circumflex
Encoding: 214 710 214
Width: 700
VWidth: 0
HStem: 700 100<200 300 400 500> 800 100<300 400>
VStem: 200 100<700 800> 300 100<800 900> 400 100<700 800>
LayerCount: 2
Fore
SplineSet
200 800 m 1xa0
 300 800 l 1
 300 700 l 1
 200 700 l 1
 200 800 l 1xa0
300 900 m 1x50
 400 900 l 1x50
 400 800 l 1x90
 300 800 l 1xa0
 300 900 l 1x50
400 800 m 1x90
 500 800 l 1
 500 700 l 1
 400 700 l 1x88
 400 800 l 1x90
EndSplineSet
Validated: 5
EndChar

StartChar: caron
Encoding: 215 711 215
Width: 700
VWidth: 0
HStem: 700 100<300 400> 800 100<200 300 400 500>
VStem: 200 100<800 900> 300 100<700 800> 400 100<800 900>
LayerCount: 2
Fore
SplineSet
400 900 m 1x48
 500 900 l 1
 500 800 l 1x48
 400 800 l 1x90
 400 900 l 1x48
300 800 m 1xa0
 400 800 l 1
 400 700 l 1
 300 700 l 1x90
 300 800 l 1xa0
200 900 m 1x60
 300 900 l 1x60
 300 800 l 1xa0
 200 800 l 1
 200 900 l 1x60
EndSplineSet
Validated: 5
EndChar

StartChar: breve
Encoding: 216 728 216
Width: 700
VWidth: 0
HStem: 700 100<200 500> 800 100<100 200 500 600>
VStem: 100 100<800 900> 500 100<800 900>
LayerCount: 2
Fore
SplineSet
500 900 m 1x70
 600 900 l 1
 600 800 l 1x70
 500 800 l 1xb0
 500 900 l 1x70
200 800 m 1xb0
 500 800 l 1
 500 700 l 1
 200 700 l 1
 200 800 l 1xb0
100 900 m 1x70
 200 900 l 1x70
 200 800 l 1xb0
 100 800 l 1
 100 900 l 1x70
EndSplineSet
Validated: 5
EndChar

StartChar: ring
Encoding: 217 730 217
Width: 500
VWidth: 0
HStem: 700 100<200 300> 800 100<100 200 300 400> 900 100<200 300>
VStem: 100 100<800 900> 200 100<700 800 900 1000> 300 100<800 900>
LayerCount: 2
Fore
SplineSet
300 900 m 1x48
 400 900 l 1
 400 800 l 1x44
 300 800 l 1x88
 300 900 l 1x48
200 800 m 1x90
 300 800 l 1
 300 700 l 1
 200 700 l 1x88
 200 800 l 1x90
100 900 m 1x50
 200 900 l 1x50
 200 800 l 1x90
 100 800 l 1
 100 900 l 1x50
200 1000 m 1x28
 300 1000 l 1x28
 300 900 l 1x48
 200 900 l 1x50
 200 1000 l 1x28
EndSplineSet
Validated: 5
EndChar

StartChar: emdash
Encoding: 220 8212 220
Width: 800
VWidth: 0
HStem: 400 100<100 700>
LayerCount: 2
Fore
SplineSet
100 500 m 1
 700 500 l 1
 700 400 l 1
 100 400 l 1
 100 500 l 1
EndSplineSet
EndChar

StartChar: quoteleft
Encoding: 221 8216 221
Width: 500
VWidth: 0
HStem: 600 200<200 300> 800 100<300 400>
VStem: 200 100<600 800> 300 100<800 900>
LayerCount: 2
Fore
SplineSet
200 800 m 1xa0
 300 800 l 1
 300 600 l 1
 200 600 l 1
 200 800 l 1xa0
300 900 m 1x50
 400 900 l 1
 400 800 l 1x50
 300 800 l 1xa0
 300 900 l 1x50
EndSplineSet
Validated: 5
EndChar

StartChar: quoteright
Encoding: 222 8217 222
Width: 500
VWidth: 0
HStem: 600 100<100 200> 700 200<200 300>
VStem: 100 100<600 700> 200 100<700 900>
LayerCount: 2
Fore
SplineSet
100 700 m 1xa0
 200 700 l 1
 200 600 l 1
 100 600 l 1
 100 700 l 1xa0
200 900 m 1x50
 300 900 l 1
 300 700 l 1x50
 200 700 l 1xa0
 200 900 l 1x50
EndSplineSet
Validated: 5
EndChar

StartChar: dagger
Encoding: 227 8224 227
Width: 700
VWidth: 0
HStem: 0 21G<300 400> 600 100<100 300 400 600> 880 20G<300 400>
VStem: 300 100<0 600 700 900>
LayerCount: 2
Fore
SplineSet
300 900 m 1
 400 900 l 1
 400 700 l 1
 600 700 l 1
 600 600 l 1
 400 600 l 1
 400 0 l 1
 300 0 l 1
 300 600 l 1
 100 600 l 1
 100 700 l 1
 300 700 l 1
 300 900 l 1
EndSplineSet
EndChar

StartChar: daggerdbl
Encoding: 228 8225 228
Width: 700
VWidth: 0
HStem: 0 21G<300 400> 200 100<100 300 400 600> 600 100<100 300 400 600> 880 20G<300 400>
VStem: 300 100<0 200 300 600 700 900>
LayerCount: 2
Fore
SplineSet
300 900 m 1
 400 900 l 1
 400 700 l 1
 600 700 l 1
 600 600 l 1
 400 600 l 1
 400 300 l 1
 600 300 l 1
 600 200 l 1
 400 200 l 1
 400 0 l 1
 300 0 l 1
 300 200 l 1
 100 200 l 1
 100 300 l 1
 300 300 l 1
 300 600 l 1
 100 600 l 1
 100 700 l 1
 300 700 l 1
 300 900 l 1
EndSplineSet
EndChar

StartChar: bullet
Encoding: 229 8226 229
Width: 600
VWidth: 0
HStem: 300 200<200 400>
VStem: 200 200<300 500>
LayerCount: 2
Fore
SplineSet
200 500 m 1
 400 500 l 1
 400 300 l 1
 200 300 l 1
 200 500 l 1
EndSplineSet
EndChar

StartChar: perthousand
Encoding: 231 8240 231
Width: 1300
VWidth: 0
HStem: 0 100<600 700 1000 1100> 100 200<500 600 700 800 900 1000 1100 1200> 200 100<200 300> 300 100<300 400 600 700 1000 1100> 400 100<400 500> 500 100<200 300 500 600> 600 200<100 200 300 400> 600 100<600 700> 800 100<200 300>
VStem: 100 100<600 800> 200 100<200 300 500 600 800 900> 300 100<300 400 600 800> 400 100<400 500> 500 100<100 300 500 600> 600 100<0 100 300 400 600 700> 700 100<100 300> 900 100<100 300> 1000 100<0 100 300 400> 1100 100<100 300>
LayerCount: 2
Fore
SplineSet
1100 300 m 1x400040
 1200 300 l 1
 1200 100 l 1x400020
 1100 100 l 1x800040
 1100 300 l 1x400040
1000 100 m 1x800080
 1100 100 l 1
 1100 0 l 1
 1000 0 l 1x800040
 1000 100 l 1x800080
900 300 m 1x400080
 1000 300 l 1x400080
 1000 100 l 1x800080
 900 100 l 1
 900 300 l 1x400080
1000 400 m 1x100040
 1100 400 l 1x100040
 1100 300 l 1x400040
 1000 300 l 1x400080
 1000 400 l 1x100040
700 300 m 1x4002
 800 300 l 1
 800 100 l 1x4001
 700 100 l 1x8002
 700 300 l 1x4002
600 100 m 1x8004
 700 100 l 1
 700 0 l 1
 600 0 l 1x8002
 600 100 l 1x8004
500 300 m 1x4004
 600 300 l 1x4004
 600 100 l 1x8004
 500 100 l 1
 500 300 l 1x4004
600 400 m 1x1002
 700 400 l 1x1002
 700 300 l 1x4002
 600 300 l 1x4004
 600 400 l 1x1002
200 300 m 1x2020
 300 300 l 1
 300 200 l 1
 200 200 l 1
 200 300 l 1x2020
300 400 m 1x1010
 400 400 l 1
 400 300 l 1x1010
 300 300 l 1x2020
 300 400 l 1x1010
400 500 m 1x0808
 500 500 l 1
 500 400 l 1x0808
 400 400 l 1x1010
 400 500 l 1x0808
500 600 m 1x0404
 600 600 l 1
 600 500 l 1x0404
 500 500 l 1x0808
 500 600 l 1x0404
600 700 m 1x0102
 700 700 l 1
 700 600 l 1x0102
 600 600 l 1x0404
 600 700 l 1x0102
300 800 m 1x0220
 400 800 l 1
 400 600 l 1x0210
 300 600 l 1x0420
 300 800 l 1x0220
200 600 m 1x0440
 300 600 l 1
 300 500 l 1
 200 500 l 1x0420
 200 600 l 1x0440
100 800 m 1x0240
 200 800 l 1x0240
 200 600 l 1x0440
 100 600 l 1
 100 800 l 1x0240
200 900 m 1x00a0
 300 900 l 1x00a0
 300 800 l 1x0220
 200 800 l 1x0240
 200 900 l 1x00a0
EndSplineSet
Validated: 5
EndChar

StartChar: guilsinglleft
Encoding: 232 8249 232
Width: 700
VWidth: 0
HStem: 200 100<500 600> 300 100<400 500> 400 100<300 400> 500 100<400 500> 600 100<500 600>
VStem: 300 100<400 500> 400 100<300 400 500 600> 500 100<200 300 600 700>
LayerCount: 2
Fore
SplineSet
300 500 m 1x24
 400 500 l 1x24
 400 400 l 1x44
 300 400 l 1
 300 500 l 1x24
400 600 m 1x12
 500 600 l 1
 500 500 l 1x12
 400 500 l 1x24
 400 600 l 1x12
500 700 m 1x09
 600 700 l 1
 600 600 l 1x09
 500 600 l 1x12
 500 700 l 1x09
500 300 m 1x82
 600 300 l 1
 600 200 l 1
 500 200 l 1x81
 500 300 l 1x82
400 400 m 1x44
 500 400 l 1x42
 500 300 l 1x82
 400 300 l 1x42
 400 400 l 1x44
EndSplineSet
Validated: 5
EndChar

StartChar: guilsinglright
Encoding: 233 8250 233
Width: 700
VWidth: 0
HStem: 200 100<100 200> 300 100<200 300> 400 100<300 400> 500 100<200 300> 600 100<100 200>
VStem: 100 100<200 300 600 700> 200 100<300 400 500 600> 300 100<400 500>
LayerCount: 2
Fore
SplineSet
100 300 m 1x84
 200 300 l 1
 200 200 l 1
 100 200 l 1
 100 300 l 1x84
200 400 m 1x42
 300 400 l 1
 300 300 l 1x42
 200 300 l 1x84
 200 400 l 1x42
300 500 m 1x22
 400 500 l 1
 400 400 l 1x21
 300 400 l 1x42
 300 500 l 1x22
200 600 m 1x14
 300 600 l 1x12
 300 500 l 1x22
 200 500 l 1x12
 200 600 l 1x14
100 700 m 1x0c
 200 700 l 1x0c
 200 600 l 1x14
 100 600 l 1
 100 700 l 1x0c
EndSplineSet
Validated: 5
EndChar

StartChar: Euro
Encoding: 234 8364 234
Width: 800
VWidth: 0
HStem: 0 100<300 600> 100 100<600 700> 300 100<100 200 300 500> 500 100<100 200 300 600> 700 100<600 700> 800 100<300 600>
VStem: 200 100<100 300 400 500 600 800> 300 300<0 100 800 900> 600 100<100 200 700 800>
LayerCount: 2
Fore
SplineSet
200 800 m 1x7680
 300 800 l 1
 300 600 l 1
 600 600 l 1
 600 500 l 1
 300 500 l 1
 300 400 l 1
 500 400 l 1
 500 300 l 1
 300 300 l 1
 300 100 l 1xb680
 200 100 l 1
 200 300 l 1
 100 300 l 1
 100 400 l 1
 200 400 l 1
 200 500 l 1
 100 500 l 1
 100 600 l 1
 200 600 l 1
 200 800 l 1x7680
600 200 m 1x7080
 700 200 l 1
 700 100 l 1x7080
 600 100 l 1xb1
 600 200 l 1x7080
300 100 m 1xb2
 600 100 l 1
 600 0 l 1
 300 0 l 1xb1
 300 100 l 1xb2
300 900 m 1x35
 600 900 l 1x35
 600 800 l 1x39
 300 800 l 1x36
 300 900 l 1x35
600 800 m 1x39
 700 800 l 1
 700 700 l 1
 600 700 l 1x3880
 600 800 l 1x39
EndSplineSet
EndChar

StartChar: uni20B1
Encoding: 235 8369 235
Width: 900
VWidth: 0
HStem: 0 21G<200 300> 400 100<300 600> 600 100<100 200 300 600 700 800> 800 100<300 600>
VStem: 200 100<0 400 500 600 700 800> 600 100<500 600 700 800>
LayerCount: 2
Fore
SplineSet
200 900 m 1
 600 900 l 1
 600 800 l 1
 300 800 l 1
 300 700 l 1
 600 700 l 1
 600 800 l 1
 700 800 l 1
 700 700 l 1
 800 700 l 1
 800 600 l 1
 700 600 l 1
 700 500 l 1
 600 500 l 1
 600 600 l 1
 300 600 l 1
 300 500 l 1
 600 500 l 1
 600 400 l 1
 300 400 l 1
 300 0 l 1
 200 0 l 1
 200 600 l 1
 100 600 l 1
 100 700 l 1
 200 700 l 1
 200 900 l 1
EndSplineSet
EndChar

StartChar: uni20B7
Encoding: 236 8375 236
Width: 900
VWidth: 0
HStem: -100 300<100 200 300 400 500 600> 0 100<200 300 400 500 600 700> 200 100<0 100 200 300 400 500> 400 100<400 700> 700 100<700 800> 800 100<400 700>
VStem: 0 100<200 300> 100 100<-100 0 100 200> 200 100<200 300> 300 100<-100 0 100 200 500 800> 400 300<400 500 800 900> 400 100<200 300> 500 100<-100 0 100 200> 700 100<100 400 700 800>
LayerCount: 2
Fore
SplineSet
400 900 m 1x1420
 700 900 l 1x1420
 700 800 l 1x1820
 400 800 l 1x1440
 400 900 l 1x1420
700 800 m 1x1820
 800 800 l 1
 800 700 l 1
 700 700 l 1x1804
 700 800 l 1x1820
400 500 m 1x1040
 700 500 l 1
 700 400 l 1
 400 400 l 1x1020
 400 500 l 1x1040
700 400 m 1
 800 400 l 1
 800 100 l 1
 700 100 l 1x5004
 700 400 l 1
300 800 m 1x1440
 400 800 l 1
 400 500 l 1
 300 500 l 1
 300 800 l 1x1440
0 300 m 1x32
 100 300 l 1x32
 100 200 l 1x92
 0 200 l 1
 0 300 l 1x32
200 300 m 1x3080
 300 300 l 1x3080
 300 200 l 1x9080
 200 200 l 1x91
 200 300 l 1x3080
400 300 m 1x3010
 500 300 l 1x3010
 500 200 l 1x9010
 400 200 l 1x9040
 400 300 l 1x3010
100 200 m 1x92
 200 200 l 1x91
 200 100 l 1
 300 100 l 1x5140
 300 200 l 1x9080
 400 200 l 1x9040
 400 100 l 1
 500 100 l 1x5048
 500 200 l 1x9010
 600 200 l 1x9008
 600 100 l 1
 700 100 l 1
 700 0 l 1
 600 0 l 1x500c
 600 -100 l 1
 500 -100 l 1x900c
 500 0 l 1
 400 0 l 1x504c
 400 -100 l 1
 300 -100 l 1x904c
 300 0 l 1
 200 0 l 1x514c
 200 -100 l 1
 100 -100 l 1x914c
 100 200 l 1x92
EndSplineSet
Validated: 5
EndChar

StartChar: uni2117
Encoding: 237 8471 237
Width: 900
VWidth: 0
HStem: 0 100<200 700> 300 100<400 500> 400 200<500 600> 600 100<400 500> 800 100<200 700>
VStem: 100 100<100 800> 300 200<300 400 600 700> 300 100<200 300 400 600> 500 100<400 600> 700 100<100 800>
LayerCount: 2
Fore
SplineSet
500 600 m 1xae40
 600 600 l 1
 600 400 l 1xacc0
 500 400 l 1xce40
 500 600 l 1xae40
700 800 m 1
 800 800 l 1
 800 100 l 1
 700 100 l 1
 700 800 l 1
200 100 m 1
 700 100 l 1
 700 0 l 1
 200 0 l 1
 200 100 l 1
100 800 m 1
 200 800 l 1
 200 100 l 1
 100 100 l 1
 100 800 l 1
200 900 m 1
 700 900 l 1
 700 800 l 1
 200 800 l 1
 200 900 l 1
300 700 m 1xde40
 500 700 l 1xde40
 500 600 l 1xae40
 400 600 l 1
 400 400 l 1xdd40
 500 400 l 1
 500 300 l 1xde40
 400 300 l 1
 400 200 l 1
 300 200 l 1xdd40
 300 700 l 1xde40
EndSplineSet
Validated: 5
EndChar

StartChar: trademark
Encoding: 238 8482 238
Width: 1100
VWidth: 200
Flags: W
HStem: 700 200<700 800> 900 100<600 700 800 900> 1000 100<100 200 300 400>
VStem: 200 100<500 1000> 500 200<900 1000> 500 100<500 900 1000 1100> 700 100<700 900> 800 200<900 1000> 900 100<500 900 1000 1100>
LayerCount: 2
Fore
SplineSet
900 1100 m 1x3080
 1000 1100 l 1x3080
 1000 500 l 1
 900 500 l 1
 900 900 l 1x5080
 800 900 l 1x9280
 800 1000 l 1x51
 900 1000 l 1x5080
 900 1100 l 1x3080
700 900 m 1x98
 800 900 l 1
 800 700 l 1
 700 700 l 1x92
 700 900 l 1x98
500 1100 m 1x34
 600 1100 l 1x34
 600 1000 l 1x54
 700 1000 l 1x58
 700 900 l 1x98
 600 900 l 1x54
 600 500 l 1
 500 500 l 1
 500 1100 l 1x34
100 1100 m 1
 400 1100 l 1
 400 1000 l 1
 300 1000 l 1
 300 500 l 1
 200 500 l 1
 200 1000 l 1
 100 1000 l 1
 100 1100 l 1
EndSplineSet
EndChar

StartChar: macron
Encoding: 239 175 239
Width: 800
VWidth: 0
Flags: W
HStem: 800 100<100 600>
VStem: 100 500<800 900>
LayerCount: 2
Fore
SplineSet
100 900 m 1
 600 900 l 1
 600 800 l 1
 100 800 l 1
 100 900 l 1
EndSplineSet
EndChar

